M48
; DRILL file KiCad 10.0.5 date 2026-08-19T23:28:05
; FORMAT={-:-/ absolute / metric / decimal}
; #@! TF.CreationDate,2026-08-19T23:28:05+02:00
; #@! TF.GenerationSoftware,Kicad,Pcbnew,10.0.5
; #@! TF.FileFunction,Plated,1,2,PTH
FMAT,2
METRIC
; #@! TA.AperFunction,Plated,PTH,ViaDrill
T1C0.300
; #@! TA.AperFunction,Plated,PTH,ComponentDrill
T2C0.500
; #@! TA.AperFunction,Plated,PTH,ViaDrill
T3C0.700
; #@! TA.AperFunction,Plated,PTH,ComponentDrill
T4C0.700
%
G90
G05
T1
X153.5Y-76.0
X153.5Y-78.0
X153.5Y-80.0
X153.5Y-82.0
X153.5Y-84.0
X153.5Y-88.5
X153.5Y-92.5
X154.0Y-96.0
X156.5Y-76.0
X157.843Y-85.996
X158.0Y-76.0
X158.0Y-100.0
X158.5Y-92.0
X160.585Y-83.92
X161.0Y-76.0
X161.0Y-98.5
X163.5Y-76.0
X166.0Y-82.5
X167.0Y-76.0
X168.0Y-77.0
X169.0Y-76.0
X170.0Y-77.0
X170.0Y-91.0
X171.0Y-76.0
X171.651Y-88.0
X171.974Y-81.5
X172.0Y-92.0
X173.5Y-95.0
X173.595Y-100.9
X174.5Y-81.5
X175.0Y-83.307
X175.0Y-95.0
X176.0Y-87.5
X176.0Y-98.0
X176.265Y-92.235
X176.5Y-84.0
X177.5Y-91.5
X177.5Y-94.0
X178.0Y-83.0
X178.04Y-80.0
X179.0Y-90.5
X179.5Y-80.0
X179.5Y-83.0
X181.0Y-80.0
X181.5Y-93.0
X183.236Y-79.138
X183.5Y-81.0
X183.5Y-82.0
X183.5Y-89.5
X184.5Y-84.0
X184.5Y-90.0
X185.0Y-78.5
X185.0Y-80.5
X185.0Y-81.0
X185.0Y-82.5
X185.06Y-76.925
X185.5Y-76.925
X185.5Y-81.0
X186.0Y-78.0
X186.0Y-79.0
X186.5Y-77.5
X186.5Y-78.5
X186.5Y-80.5
X186.5Y-82.0
X186.5Y-85.5
X187.25Y-92.25
X187.5Y-78.5
X187.6Y-76.925
X188.0Y-81.0
X188.0Y-87.5
X188.5Y-93.5
X188.5Y-96.0
X189.0Y-80.5
X189.233Y-79.138
X189.233Y-79.138
X189.5Y-92.0
X190.5Y-78.5
X190.5Y-79.5
X191.5Y-81.5
X191.5Y-99.5
X192.0Y-78.0
X192.0Y-94.0
X192.5Y-96.5
T2
X155.5Y-77.5
X155.5Y-78.75
X155.5Y-80.0
X155.5Y-81.25
X155.5Y-82.5
T3
X168.5Y-96.0
X182.739Y-87.679
T4
X154.275Y-86.177
X154.275Y-90.177
M30
