G04 #@! TF.GenerationSoftware,KiCad,Pcbnew,10.0.5*
G04 #@! TF.CreationDate,2026-08-19T23:53:12+02:00*
G04 #@! TF.ProjectId,Fork Ikoka Nano,466f726b-2049-46b6-9f6b-61204e616e6f,1.1*
G04 #@! TF.SameCoordinates,Original*
G04 #@! TF.FileFunction,Copper,L2,Bot*
G04 #@! TF.FilePolarity,Positive*
%FSLAX46Y46*%
G04 Gerber Fmt 4.6, Leading zero omitted, Abs format (unit mm)*
G04 Created by KiCad (PCBNEW 10.0.5) date 2026-08-19 23:53:12*
%MOMM*%
%LPD*%
G01*
G04 APERTURE LIST*
G04 Aperture macros list*
%AMRoundRect*
0 Rectangle with rounded corners*
0 $1 Rounding radius*
0 $2 $3 $4 $5 $6 $7 $8 $9 X,Y pos of 4 corners*
0 Add a 4 corners polygon primitive as box body*
4,1,4,$2,$3,$4,$5,$6,$7,$8,$9,$2,$3,0*
0 Add four circle primitives for the rounded corners*
1,1,$1+$1,$2,$3*
1,1,$1+$1,$4,$5*
1,1,$1+$1,$6,$7*
1,1,$1+$1,$8,$9*
0 Add four rect primitives between the rounded corners*
20,1,$1+$1,$2,$3,$4,$5,0*
20,1,$1+$1,$4,$5,$6,$7,0*
20,1,$1+$1,$6,$7,$8,$9,0*
20,1,$1+$1,$8,$9,$2,$3,0*%
G04 Aperture macros list end*
G04 #@! TA.AperFunction,SMDPad,CuDef*
%ADD10R,1.510000X2.080000*%
G04 #@! TD*
G04 #@! TA.AperFunction,ComponentPad*
%ADD11RoundRect,0.200000X0.450000X-0.200000X0.450000X0.200000X-0.450000X0.200000X-0.450000X-0.200000X0*%
G04 #@! TD*
G04 #@! TA.AperFunction,ComponentPad*
%ADD12O,1.300000X0.800000*%
G04 #@! TD*
G04 #@! TA.AperFunction,ComponentPad*
%ADD13C,1.700000*%
G04 #@! TD*
G04 #@! TA.AperFunction,ComponentPad*
%ADD14RoundRect,0.250000X-0.600000X0.600000X-0.600000X-0.600000X0.600000X-0.600000X0.600000X0.600000X0*%
G04 #@! TD*
G04 #@! TA.AperFunction,ViaPad*
%ADD15C,0.600000*%
G04 #@! TD*
G04 #@! TA.AperFunction,ViaPad*
%ADD16C,1.500000*%
G04 #@! TD*
G04 #@! TA.AperFunction,Conductor*
%ADD17C,0.800000*%
G04 #@! TD*
G04 #@! TA.AperFunction,Conductor*
%ADD18C,0.200000*%
G04 #@! TD*
G04 #@! TA.AperFunction,Conductor*
%ADD19C,0.160000*%
G04 #@! TD*
G04 #@! TA.AperFunction,Conductor*
%ADD20C,1.500000*%
G04 #@! TD*
G04 APERTURE END LIST*
D10*
X159680000Y-76925000D03*
X162220000Y-76925000D03*
X164760000Y-76925000D03*
X172360000Y-76925000D03*
X174900000Y-76925000D03*
X177440000Y-76925000D03*
X179980000Y-76925000D03*
X182520000Y-76925000D03*
X185060000Y-76925000D03*
X187600000Y-76925000D03*
X190140000Y-76925000D03*
X190140000Y-100075000D03*
X187600000Y-100075000D03*
X185060000Y-100075000D03*
X182520000Y-100075000D03*
X179980000Y-100075000D03*
X177440000Y-100075000D03*
X174900000Y-100075000D03*
X172360000Y-100075000D03*
X164760000Y-100075000D03*
X162220000Y-100075000D03*
X159680000Y-100075000D03*
D11*
X155500000Y-82500000D03*
D12*
X155500000Y-81250000D03*
X155500000Y-80000000D03*
X155500000Y-78750000D03*
X155500000Y-77500000D03*
D13*
X154274679Y-90176847D03*
D14*
X154274679Y-86176847D03*
D15*
X166000000Y-82500000D03*
X176500000Y-84000000D03*
X174500000Y-81500000D03*
X168000000Y-77000000D03*
X170000000Y-77000000D03*
X192000000Y-78000000D03*
X191500000Y-81500000D03*
X192000000Y-94000000D03*
X192500000Y-96500000D03*
X191500000Y-99500000D03*
X188000000Y-87500000D03*
X184500000Y-84000000D03*
X186500000Y-85500000D03*
X183500000Y-89500000D03*
X184500000Y-90000000D03*
X176000000Y-87500000D03*
X181500000Y-93000000D03*
X179000000Y-90500000D03*
X177500000Y-91500000D03*
X177500000Y-94000000D03*
X173500000Y-95000000D03*
X172000000Y-92000000D03*
X161000000Y-98500000D03*
X158000000Y-100000000D03*
X154000000Y-96000000D03*
X153500000Y-92500000D03*
X153500000Y-88500000D03*
X153500000Y-84000000D03*
X153500000Y-82000000D03*
X153500000Y-80000000D03*
X153500000Y-78000000D03*
X153500000Y-76000000D03*
X156500000Y-76000000D03*
X158000000Y-76000000D03*
X161000000Y-76000000D03*
X163500000Y-76000000D03*
X167000000Y-76000000D03*
X169000000Y-76000000D03*
X171000000Y-76000000D03*
X190500000Y-79500000D03*
X190500000Y-78500000D03*
X189233405Y-79137931D03*
X189233405Y-79137931D03*
X189000000Y-80500000D03*
X188000000Y-81000000D03*
X186500000Y-82000000D03*
X185000000Y-82500000D03*
X183500000Y-82000000D03*
X183235668Y-79137931D03*
X183500000Y-81000000D03*
X187500000Y-78500000D03*
X187600000Y-76925000D03*
X185060000Y-76925000D03*
X185500000Y-76925000D03*
X185000000Y-78500000D03*
X185000000Y-80500000D03*
X185000000Y-81000000D03*
X185500000Y-81000000D03*
X186500000Y-80500000D03*
X186000000Y-79000000D03*
X186500000Y-78500000D03*
X186000000Y-78000000D03*
X186500000Y-77500000D03*
D16*
X182738988Y-87679181D03*
D15*
X176264692Y-92235308D03*
D16*
X168500000Y-96000000D03*
D15*
X176000000Y-98000000D03*
X175000000Y-95000000D03*
X178000000Y-83000000D03*
X178040000Y-80000000D03*
X179500000Y-80000000D03*
X179500000Y-83000000D03*
X189500000Y-92000000D03*
X181000000Y-80000000D03*
X175000000Y-83307500D03*
X171651384Y-88000000D03*
X157842929Y-85995840D03*
X158500000Y-92000000D03*
X170000000Y-91000000D03*
X171974000Y-81500000D03*
X160585163Y-83920000D03*
X187250000Y-92250000D03*
X188500000Y-93500000D03*
X188500000Y-96000000D03*
X173594660Y-100900000D03*
D17*
X185500000Y-76925000D02*
X187600000Y-76925000D01*
D18*
X179980000Y-97980000D02*
X179980000Y-100075000D01*
X176264692Y-94264692D02*
X179980000Y-97980000D01*
X176264692Y-92235308D02*
X176264692Y-94264692D01*
X177500000Y-97500000D02*
X177500000Y-100015000D01*
X175000000Y-95000000D02*
X177500000Y-97500000D01*
X177500000Y-100015000D02*
X177440000Y-100075000D01*
X187250000Y-92250000D02*
X182520000Y-96980000D01*
X182525000Y-85025000D02*
X173267463Y-85025000D01*
X172162463Y-83920000D02*
X160585163Y-83920000D01*
X185500000Y-94000000D02*
X185500000Y-88000000D01*
X185500000Y-88000000D02*
X182525000Y-85025000D01*
X173267463Y-85025000D02*
X172162463Y-83920000D01*
X182520000Y-96980000D02*
X185500000Y-94000000D01*
X176500000Y-77865000D02*
X177440000Y-76925000D01*
X176500000Y-82000000D02*
X176500000Y-77865000D01*
X175000000Y-83307500D02*
X175192500Y-83307500D01*
X175192500Y-83307500D02*
X176500000Y-82000000D01*
X178000000Y-80040000D02*
X178000000Y-83000000D01*
X178040000Y-80000000D02*
X178000000Y-80040000D01*
X189500000Y-90500000D02*
X189500000Y-92000000D01*
X181000000Y-82000000D02*
X189500000Y-90500000D01*
X181000000Y-80000000D02*
X181000000Y-82000000D01*
X179500000Y-83000000D02*
X179500000Y-80000000D01*
X169000000Y-92000000D02*
X170000000Y-91000000D01*
X158500000Y-92000000D02*
X169000000Y-92000000D01*
X156250000Y-78750000D02*
X155500000Y-78750000D01*
X159000000Y-81500000D02*
X156250000Y-78750000D01*
X171974000Y-81500000D02*
X159000000Y-81500000D01*
X174900000Y-99100000D02*
X176000000Y-98000000D01*
X174900000Y-100075000D02*
X174900000Y-99100000D01*
X171651384Y-88000000D02*
X160000000Y-88000000D01*
X160000000Y-88000000D02*
X157995840Y-85995840D01*
X157995840Y-85995840D02*
X157842929Y-85995840D01*
X182520000Y-96980000D02*
X182520000Y-100075000D01*
X188500000Y-93500000D02*
X185060000Y-96940000D01*
X185060000Y-96940000D02*
X185060000Y-100075000D01*
X188500000Y-96000000D02*
X187600000Y-96900000D01*
X187600000Y-96900000D02*
X187600000Y-100075000D01*
X173594660Y-100900000D02*
X173185000Y-100900000D01*
X173185000Y-100900000D02*
X172360000Y-100075000D01*
D17*
X185060000Y-76925000D02*
X185500000Y-76925000D01*
D19*
X179980000Y-76925000D02*
X182520000Y-76925000D01*
D20*
X172500000Y-93500000D02*
X172500000Y-93526933D01*
X182738988Y-87679181D02*
X178320819Y-87679181D01*
X178320819Y-87679181D02*
X172500000Y-93500000D01*
X172500000Y-93526933D02*
X170973067Y-93526933D01*
X170973067Y-93526933D02*
X168500000Y-96000000D01*
G04 #@! TA.AperFunction,Conductor*
G36*
X176377606Y-75805523D02*
G01*
X176392604Y-75809927D01*
X176451355Y-75847672D01*
X176452542Y-75849041D01*
X176480018Y-75903902D01*
X176481663Y-75911460D01*
X176484500Y-75937831D01*
X176484500Y-77386337D01*
X176479476Y-77421274D01*
X176472064Y-77446515D01*
X176440769Y-77499259D01*
X176259544Y-77680482D01*
X176259544Y-77680483D01*
X176259526Y-77680508D01*
X176220485Y-77748130D01*
X176220010Y-77748936D01*
X176219977Y-77749014D01*
X176199500Y-77825437D01*
X176199500Y-81806336D01*
X176194476Y-81841273D01*
X176187064Y-81866514D01*
X176155769Y-81919258D01*
X175288541Y-82786485D01*
X175260288Y-82807636D01*
X175243773Y-82816654D01*
X175181393Y-82831787D01*
X175170979Y-82831539D01*
X175141845Y-82827351D01*
X175134211Y-82825306D01*
X175134204Y-82825304D01*
X175131860Y-82824676D01*
X175065892Y-82807000D01*
X175065891Y-82807000D01*
X174934108Y-82807000D01*
X174806808Y-82841109D01*
X174806806Y-82841110D01*
X174692696Y-82906993D01*
X174692682Y-82907002D01*
X174692677Y-82907006D01*
X174599506Y-83000177D01*
X174599502Y-83000182D01*
X174599493Y-83000196D01*
X174533610Y-83114306D01*
X174533609Y-83114309D01*
X174512474Y-83193187D01*
X174499500Y-83241606D01*
X174499500Y-83373395D01*
X174511899Y-83419671D01*
X174511900Y-83419671D01*
X174533608Y-83500687D01*
X174541768Y-83514822D01*
X174541772Y-83514827D01*
X174564122Y-83553539D01*
X174599500Y-83614814D01*
X174692686Y-83708000D01*
X174806814Y-83773892D01*
X174934108Y-83808000D01*
X174934110Y-83808000D01*
X175065890Y-83808000D01*
X175065892Y-83808000D01*
X175193186Y-83773892D01*
X175307314Y-83708000D01*
X175400500Y-83614814D01*
X175466392Y-83500686D01*
X175468980Y-83491022D01*
X175481366Y-83461120D01*
X175497136Y-83433806D01*
X175516837Y-83408131D01*
X175990861Y-82934108D01*
X177499500Y-82934108D01*
X177499500Y-83065891D01*
X177512474Y-83114309D01*
X177533608Y-83193186D01*
X177533607Y-83193186D01*
X177533608Y-83193187D01*
X177566554Y-83250250D01*
X177599500Y-83307314D01*
X177692686Y-83400500D01*
X177806814Y-83466392D01*
X177934108Y-83500500D01*
X177934110Y-83500500D01*
X178065890Y-83500500D01*
X178065892Y-83500500D01*
X178193186Y-83466392D01*
X178307314Y-83400500D01*
X178400500Y-83307314D01*
X178466392Y-83193186D01*
X178500500Y-83065892D01*
X178500500Y-82934108D01*
X178466392Y-82806814D01*
X178466387Y-82806806D01*
X178454655Y-82786485D01*
X178400500Y-82692686D01*
X178349425Y-82641611D01*
X178328272Y-82613353D01*
X178315666Y-82590265D01*
X178300500Y-82530842D01*
X178300500Y-80515400D01*
X178305523Y-80480465D01*
X178312040Y-80458270D01*
X178339754Y-80409258D01*
X178342066Y-80406746D01*
X178342065Y-80406745D01*
X178351778Y-80396187D01*
X178355336Y-80392477D01*
X178380500Y-80367314D01*
X178440500Y-80307314D01*
X178506392Y-80193186D01*
X178540500Y-80065892D01*
X178540500Y-79934108D01*
X178999500Y-79934108D01*
X178999500Y-80065891D01*
X179033608Y-80193186D01*
X179033609Y-80193190D01*
X179049272Y-80220318D01*
X179055890Y-80231780D01*
X179055894Y-80231786D01*
X179055895Y-80231790D01*
X179055896Y-80231790D01*
X179099500Y-80307314D01*
X179099502Y-80307316D01*
X179150573Y-80358387D01*
X179171723Y-80386639D01*
X179184331Y-80409728D01*
X179199500Y-80469157D01*
X179199500Y-82523493D01*
X179194476Y-82558432D01*
X179187063Y-82583675D01*
X179155768Y-82636417D01*
X179099500Y-82692684D01*
X179033610Y-82806806D01*
X179033609Y-82806808D01*
X179033608Y-82806812D01*
X178999500Y-82934108D01*
X178999500Y-83065891D01*
X179012474Y-83114309D01*
X179033608Y-83193186D01*
X179033607Y-83193186D01*
X179033608Y-83193187D01*
X179066554Y-83250250D01*
X179099500Y-83307314D01*
X179192686Y-83400500D01*
X179306814Y-83466392D01*
X179434108Y-83500500D01*
X179434110Y-83500500D01*
X179565890Y-83500500D01*
X179565892Y-83500500D01*
X179693186Y-83466392D01*
X179807314Y-83400500D01*
X179900500Y-83307314D01*
X179966392Y-83193186D01*
X180000500Y-83065892D01*
X180000500Y-82934108D01*
X179966392Y-82806814D01*
X179966387Y-82806806D01*
X179954655Y-82786485D01*
X179900500Y-82692686D01*
X179849425Y-82641611D01*
X179828272Y-82613353D01*
X179815666Y-82590265D01*
X179800500Y-82530842D01*
X179800500Y-80476505D01*
X179805522Y-80441572D01*
X179805523Y-80441570D01*
X179812934Y-80416327D01*
X179844227Y-80363586D01*
X179900500Y-80307314D01*
X179966392Y-80193186D01*
X180000500Y-80065892D01*
X180000500Y-79934108D01*
X180499500Y-79934108D01*
X180499500Y-80065891D01*
X180533608Y-80193186D01*
X180533609Y-80193190D01*
X180549272Y-80220318D01*
X180555890Y-80231780D01*
X180555894Y-80231786D01*
X180555895Y-80231790D01*
X180555896Y-80231790D01*
X180599500Y-80307314D01*
X180599502Y-80307316D01*
X180650573Y-80358387D01*
X180671723Y-80386639D01*
X180684331Y-80409728D01*
X180699500Y-80469157D01*
X180699500Y-82039562D01*
X180705420Y-82061655D01*
X180705420Y-82061657D01*
X180719976Y-82115981D01*
X180719986Y-82116005D01*
X180753873Y-82174698D01*
X180759538Y-82184510D01*
X180759540Y-82184512D01*
X180759541Y-82184513D01*
X189150573Y-90575544D01*
X189171723Y-90603796D01*
X189184331Y-90626885D01*
X189199500Y-90686314D01*
X189199500Y-91523493D01*
X189194476Y-91558432D01*
X189187063Y-91583675D01*
X189155768Y-91636417D01*
X189099500Y-91692684D01*
X189033610Y-91806806D01*
X189033609Y-91806808D01*
X189022168Y-91849506D01*
X188999500Y-91934108D01*
X188999500Y-92065891D01*
X189031283Y-92184511D01*
X189033609Y-92193189D01*
X189060902Y-92240461D01*
X189060903Y-92240462D01*
X189099497Y-92307310D01*
X189099499Y-92307313D01*
X189099500Y-92307314D01*
X189192686Y-92400500D01*
X189306814Y-92466392D01*
X189434108Y-92500500D01*
X189434110Y-92500500D01*
X189565890Y-92500500D01*
X189565892Y-92500500D01*
X189693186Y-92466392D01*
X189807314Y-92400500D01*
X189900500Y-92307314D01*
X189966392Y-92193186D01*
X190000500Y-92065892D01*
X190000500Y-91934108D01*
X189966392Y-91806814D01*
X189966387Y-91806806D01*
X189952995Y-91783610D01*
X189900500Y-91692686D01*
X189849425Y-91641611D01*
X189828272Y-91613353D01*
X189815666Y-91590265D01*
X189800500Y-91530842D01*
X189800500Y-90460440D01*
X189800499Y-90460436D01*
X189780020Y-90384009D01*
X189779993Y-90383946D01*
X189779512Y-90383129D01*
X189770992Y-90368373D01*
X189740464Y-90315495D01*
X189740458Y-90315487D01*
X189740454Y-90315483D01*
X189740453Y-90315481D01*
X181349426Y-81924455D01*
X181328274Y-81896199D01*
X181315667Y-81873110D01*
X181300500Y-81813685D01*
X181300500Y-80476503D01*
X181305522Y-80441570D01*
X181309144Y-80429235D01*
X181309901Y-80425751D01*
X181343379Y-80364434D01*
X181369514Y-80338300D01*
X181376819Y-80330995D01*
X181400500Y-80307314D01*
X181466392Y-80193186D01*
X181500500Y-80065892D01*
X181500500Y-79934108D01*
X181466392Y-79806814D01*
X181466387Y-79806806D01*
X181456197Y-79789156D01*
X181400500Y-79692686D01*
X181307314Y-79599500D01*
X181250250Y-79566554D01*
X181193187Y-79533608D01*
X181129539Y-79516554D01*
X181065892Y-79499500D01*
X181065891Y-79499500D01*
X180934108Y-79499500D01*
X180806808Y-79533609D01*
X180806806Y-79533610D01*
X180692696Y-79599493D01*
X180692682Y-79599502D01*
X180692677Y-79599506D01*
X180599506Y-79692677D01*
X180599502Y-79692682D01*
X180599501Y-79692684D01*
X180533610Y-79806806D01*
X180533609Y-79806808D01*
X180533608Y-79806812D01*
X180499500Y-79934108D01*
X180000500Y-79934108D01*
X179966392Y-79806814D01*
X179966387Y-79806806D01*
X179956197Y-79789156D01*
X179900500Y-79692686D01*
X179807314Y-79599500D01*
X179750250Y-79566554D01*
X179693187Y-79533608D01*
X179629539Y-79516554D01*
X179565892Y-79499500D01*
X179565891Y-79499500D01*
X179434108Y-79499500D01*
X179306808Y-79533609D01*
X179306806Y-79533610D01*
X179192696Y-79599493D01*
X179192682Y-79599502D01*
X179192677Y-79599506D01*
X179099506Y-79692677D01*
X179099502Y-79692682D01*
X179099501Y-79692684D01*
X179033610Y-79806806D01*
X179033609Y-79806808D01*
X179033608Y-79806812D01*
X178999500Y-79934108D01*
X178540500Y-79934108D01*
X178506392Y-79806814D01*
X178506387Y-79806806D01*
X178496197Y-79789156D01*
X178440500Y-79692686D01*
X178347314Y-79599500D01*
X178290250Y-79566554D01*
X178233187Y-79533608D01*
X178169539Y-79516554D01*
X178105892Y-79499500D01*
X178105891Y-79499500D01*
X177974108Y-79499500D01*
X177846808Y-79533609D01*
X177846806Y-79533610D01*
X177732696Y-79599493D01*
X177732682Y-79599502D01*
X177732677Y-79599506D01*
X177639506Y-79692677D01*
X177639502Y-79692682D01*
X177639501Y-79692684D01*
X177573610Y-79806806D01*
X177573609Y-79806808D01*
X177573608Y-79806812D01*
X177539500Y-79934108D01*
X177539500Y-80065891D01*
X177573608Y-80193186D01*
X177573609Y-80193190D01*
X177589272Y-80220318D01*
X177595890Y-80231780D01*
X177595894Y-80231786D01*
X177595895Y-80231790D01*
X177595896Y-80231790D01*
X177639500Y-80307314D01*
X177639502Y-80307316D01*
X177650573Y-80318387D01*
X177671723Y-80346639D01*
X177678303Y-80358689D01*
X177683774Y-80368709D01*
X177684331Y-80369728D01*
X177699500Y-80429157D01*
X177699500Y-82523493D01*
X177694476Y-82558432D01*
X177687063Y-82583675D01*
X177655768Y-82636417D01*
X177599500Y-82692684D01*
X177533610Y-82806806D01*
X177533609Y-82806808D01*
X177533608Y-82806812D01*
X177499500Y-82934108D01*
X175990861Y-82934108D01*
X176232287Y-82692683D01*
X176740459Y-82184513D01*
X176740458Y-82184512D01*
X176740460Y-82184511D01*
X176746127Y-82174697D01*
X176747217Y-82172807D01*
X176750662Y-82166841D01*
X176750666Y-82166833D01*
X176780021Y-82115989D01*
X176800500Y-82039562D01*
X176800500Y-78307329D01*
X176805523Y-78272393D01*
X176806382Y-78269470D01*
X176809927Y-78257394D01*
X176847672Y-78198644D01*
X176849041Y-78197457D01*
X176903920Y-78169977D01*
X176911479Y-78168333D01*
X176937832Y-78165500D01*
X178218876Y-78165500D01*
X178226742Y-78163114D01*
X178229568Y-78162552D01*
X178273229Y-78153868D01*
X178273229Y-78153867D01*
X178273231Y-78153867D01*
X178339552Y-78109552D01*
X178383867Y-78043231D01*
X178383867Y-78043229D01*
X178383868Y-78043229D01*
X178395072Y-77986896D01*
X178395500Y-77984931D01*
X178395500Y-75942329D01*
X178400523Y-75907393D01*
X178404927Y-75892395D01*
X178442672Y-75833644D01*
X178444041Y-75832457D01*
X178498920Y-75804977D01*
X178506479Y-75803333D01*
X178532832Y-75800500D01*
X178882670Y-75800500D01*
X178917606Y-75805523D01*
X178932604Y-75809927D01*
X178991355Y-75847672D01*
X178992542Y-75849041D01*
X179020018Y-75903902D01*
X179021663Y-75911460D01*
X179024500Y-75937831D01*
X179024500Y-77984752D01*
X179036131Y-78043229D01*
X179036132Y-78043230D01*
X179039024Y-78048641D01*
X179042917Y-78053385D01*
X179080447Y-78109552D01*
X179134930Y-78145956D01*
X179136613Y-78147081D01*
X179141358Y-78150975D01*
X179146770Y-78153868D01*
X179197612Y-78163981D01*
X179200337Y-78164703D01*
X179205249Y-78165500D01*
X180754750Y-78165500D01*
X180758876Y-78165500D01*
X180766742Y-78163114D01*
X180769568Y-78162552D01*
X180813229Y-78153868D01*
X180813229Y-78153867D01*
X180813231Y-78153867D01*
X180879552Y-78109552D01*
X180923867Y-78043231D01*
X180923867Y-78043229D01*
X180923868Y-78043229D01*
X180935072Y-77986896D01*
X180935500Y-77984931D01*
X180935500Y-77347329D01*
X180940523Y-77312393D01*
X180944927Y-77297395D01*
X180982672Y-77238644D01*
X180984041Y-77237457D01*
X181038920Y-77209977D01*
X181046479Y-77208333D01*
X181072832Y-77205500D01*
X181422670Y-77205500D01*
X181457606Y-77210523D01*
X181472604Y-77214927D01*
X181531355Y-77252672D01*
X181532542Y-77254041D01*
X181560018Y-77308902D01*
X181561663Y-77316460D01*
X181564500Y-77342831D01*
X181564500Y-77984752D01*
X181576131Y-78043229D01*
X181576132Y-78043230D01*
X181579024Y-78048641D01*
X181582917Y-78053385D01*
X181620447Y-78109552D01*
X181674930Y-78145956D01*
X181676613Y-78147081D01*
X181681358Y-78150975D01*
X181686770Y-78153868D01*
X181737612Y-78163981D01*
X181740337Y-78164703D01*
X181745249Y-78165500D01*
X183294750Y-78165500D01*
X183298876Y-78165500D01*
X183306742Y-78163114D01*
X183309568Y-78162552D01*
X183353229Y-78153868D01*
X183353229Y-78153867D01*
X183353231Y-78153867D01*
X183419552Y-78109552D01*
X183463867Y-78043231D01*
X183463867Y-78043229D01*
X183463868Y-78043229D01*
X183475072Y-77986896D01*
X183475500Y-77984931D01*
X183475500Y-75942329D01*
X183480523Y-75907393D01*
X183484927Y-75892395D01*
X183522672Y-75833644D01*
X183524041Y-75832457D01*
X183578920Y-75804977D01*
X183586479Y-75803333D01*
X183612832Y-75800500D01*
X183962670Y-75800500D01*
X183997606Y-75805523D01*
X184012604Y-75809927D01*
X184071355Y-75847672D01*
X184072542Y-75849041D01*
X184100018Y-75903902D01*
X184101663Y-75911460D01*
X184104500Y-75937831D01*
X184104500Y-77984752D01*
X184116131Y-78043229D01*
X184116132Y-78043230D01*
X184119024Y-78048641D01*
X184122917Y-78053385D01*
X184160447Y-78109552D01*
X184214930Y-78145956D01*
X184216613Y-78147081D01*
X184221358Y-78150975D01*
X184226769Y-78153867D01*
X184226770Y-78153868D01*
X184226771Y-78153868D01*
X184228945Y-78155030D01*
X184278793Y-78203989D01*
X184294500Y-78264392D01*
X184294500Y-78967373D01*
X184292092Y-78991691D01*
X183947116Y-80716564D01*
X183944971Y-80729385D01*
X183942878Y-80744879D01*
X183941550Y-80757766D01*
X183932220Y-80888775D01*
X183932220Y-80888784D01*
X183932014Y-80914700D01*
X183932014Y-80914703D01*
X183933739Y-80945905D01*
X183936803Y-80971666D01*
X183959074Y-81093024D01*
X183965359Y-81118198D01*
X183965362Y-81118207D01*
X183974821Y-81147962D01*
X183984229Y-81172148D01*
X183984233Y-81172158D01*
X184036125Y-81284091D01*
X184048506Y-81306903D01*
X184048517Y-81306922D01*
X184065100Y-81333348D01*
X184065108Y-81333360D01*
X184080254Y-81354417D01*
X184158493Y-81449854D01*
X184158507Y-81449869D01*
X184176160Y-81468825D01*
X184176164Y-81468829D01*
X184198852Y-81490299D01*
X184198855Y-81490302D01*
X184198860Y-81490306D01*
X184218788Y-81506910D01*
X184318397Y-81579765D01*
X184340258Y-81593727D01*
X184367595Y-81608846D01*
X184391039Y-81619941D01*
X184505694Y-81665589D01*
X184530349Y-81673643D01*
X184560596Y-81681450D01*
X184586068Y-81686334D01*
X184586078Y-81686335D01*
X184586082Y-81686336D01*
X184716330Y-81702875D01*
X184722726Y-81703482D01*
X184729247Y-81704102D01*
X184744867Y-81705090D01*
X184756659Y-81705462D01*
X184757838Y-81705500D01*
X184757839Y-81705500D01*
X185256736Y-81705500D01*
X185256737Y-81705500D01*
X185268639Y-81705155D01*
X185282980Y-81704323D01*
X185294845Y-81703289D01*
X185503111Y-81679039D01*
X185526559Y-81674920D01*
X185554474Y-81668330D01*
X185554493Y-81668324D01*
X185554498Y-81668323D01*
X185577277Y-81661531D01*
X185577277Y-81661530D01*
X185577287Y-81661528D01*
X185774412Y-81590077D01*
X185785488Y-81585695D01*
X185798686Y-81580026D01*
X185809484Y-81575013D01*
X187215972Y-80871769D01*
X187224873Y-80867042D01*
X187235477Y-80861073D01*
X187244150Y-80855907D01*
X187394556Y-80761228D01*
X187411079Y-80749657D01*
X187430283Y-80734752D01*
X187445585Y-80721623D01*
X187570190Y-80603624D01*
X187584131Y-80589060D01*
X187600058Y-80570697D01*
X187612512Y-80554828D01*
X187633382Y-80525363D01*
X187711678Y-80414824D01*
X187711694Y-80414800D01*
X187711693Y-80414800D01*
X187711699Y-80414793D01*
X187722534Y-80397783D01*
X187734572Y-80376665D01*
X187743687Y-80358677D01*
X187816148Y-80196385D01*
X187820033Y-80187075D01*
X187824443Y-80175733D01*
X187827866Y-80166247D01*
X188169378Y-79141710D01*
X188170619Y-79137861D01*
X188172063Y-79133227D01*
X188173217Y-79129395D01*
X188193010Y-79061230D01*
X188195100Y-79053468D01*
X188197440Y-79044048D01*
X188199227Y-79036199D01*
X188213630Y-78966684D01*
X188214405Y-78962750D01*
X188215297Y-78957978D01*
X188216000Y-78954003D01*
X188332235Y-78256592D01*
X188362673Y-78193703D01*
X188418548Y-78158321D01*
X188427388Y-78155639D01*
X188432276Y-78154414D01*
X188432608Y-78153991D01*
X188433229Y-78153868D01*
X188433229Y-78153867D01*
X188433231Y-78153867D01*
X188499552Y-78109552D01*
X188543867Y-78043231D01*
X188543867Y-78043229D01*
X188543868Y-78043229D01*
X188555072Y-77986896D01*
X188555500Y-77984931D01*
X188555500Y-75942329D01*
X188560523Y-75907393D01*
X188564927Y-75892395D01*
X188602672Y-75833644D01*
X188604041Y-75832457D01*
X188658920Y-75804977D01*
X188666479Y-75803333D01*
X188692832Y-75800500D01*
X192490857Y-75800500D01*
X192496917Y-75800647D01*
X192503047Y-75800948D01*
X192509058Y-75801392D01*
X192618263Y-75812147D01*
X192630286Y-75813931D01*
X192642168Y-75816294D01*
X192653960Y-75819247D01*
X192750193Y-75848439D01*
X192761629Y-75852531D01*
X192772837Y-75857174D01*
X192783811Y-75862364D01*
X192839995Y-75892395D01*
X192872477Y-75909757D01*
X192882908Y-75916009D01*
X192893001Y-75922752D01*
X192902767Y-75929996D01*
X192980473Y-75993768D01*
X192989489Y-76001940D01*
X192998058Y-76010509D01*
X193006230Y-76019525D01*
X193070002Y-76097231D01*
X193077251Y-76107005D01*
X193083983Y-76117080D01*
X193090239Y-76127517D01*
X193137622Y-76216163D01*
X193142828Y-76227170D01*
X193147469Y-76238376D01*
X193151566Y-76249828D01*
X193180747Y-76346025D01*
X193183703Y-76357826D01*
X193186066Y-76369704D01*
X193187852Y-76381743D01*
X193198604Y-76490903D01*
X193199051Y-76496970D01*
X193199350Y-76503053D01*
X193199500Y-76509141D01*
X193199500Y-100490857D01*
X193199350Y-100496945D01*
X193199051Y-100503028D01*
X193198604Y-100509095D01*
X193187852Y-100618255D01*
X193186066Y-100630294D01*
X193183703Y-100642172D01*
X193180747Y-100653973D01*
X193151566Y-100750170D01*
X193147469Y-100761622D01*
X193142828Y-100772828D01*
X193137622Y-100783835D01*
X193090239Y-100872481D01*
X193083983Y-100882918D01*
X193077251Y-100892993D01*
X193070002Y-100902767D01*
X193006230Y-100980473D01*
X192998058Y-100989489D01*
X192989489Y-100998058D01*
X192980473Y-101006230D01*
X192902767Y-101070002D01*
X192892993Y-101077251D01*
X192882918Y-101083983D01*
X192872481Y-101090239D01*
X192783835Y-101137622D01*
X192772828Y-101142828D01*
X192761622Y-101147469D01*
X192750170Y-101151566D01*
X192653973Y-101180747D01*
X192642170Y-101183703D01*
X192630291Y-101186066D01*
X192618254Y-101187852D01*
X192537215Y-101195834D01*
X192537214Y-101195834D01*
X192509089Y-101198604D01*
X192503027Y-101199051D01*
X192496948Y-101199350D01*
X192490856Y-101199500D01*
X188697330Y-101199500D01*
X188662389Y-101194475D01*
X188647390Y-101190070D01*
X188588644Y-101152327D01*
X188587457Y-101150958D01*
X188559977Y-101096083D01*
X188558332Y-101088521D01*
X188555500Y-101062168D01*
X188555500Y-99015063D01*
X188555069Y-99013081D01*
X188543868Y-98956770D01*
X188540975Y-98951358D01*
X188537081Y-98946613D01*
X188526732Y-98931125D01*
X188499552Y-98890447D01*
X188463146Y-98866121D01*
X188443385Y-98852917D01*
X188438641Y-98849024D01*
X188433230Y-98846132D01*
X188433229Y-98846131D01*
X188374752Y-98834500D01*
X188374750Y-98834500D01*
X188042330Y-98834500D01*
X188007389Y-98829475D01*
X187992390Y-98825070D01*
X187933644Y-98787327D01*
X187932457Y-98785958D01*
X187904977Y-98731083D01*
X187903332Y-98723521D01*
X187900500Y-98697168D01*
X187900500Y-97093661D01*
X187905522Y-97058728D01*
X187912934Y-97033483D01*
X187944228Y-96980741D01*
X188375546Y-96549422D01*
X188403800Y-96528273D01*
X188426890Y-96515666D01*
X188486313Y-96500500D01*
X188565890Y-96500500D01*
X188565892Y-96500500D01*
X188693186Y-96466392D01*
X188807314Y-96400500D01*
X188900500Y-96307314D01*
X188966392Y-96193186D01*
X189000500Y-96065892D01*
X189000500Y-95934108D01*
X188966392Y-95806814D01*
X188966387Y-95806806D01*
X188957563Y-95791521D01*
X188900500Y-95692686D01*
X188807314Y-95599500D01*
X188750250Y-95566554D01*
X188693187Y-95533608D01*
X188629539Y-95516554D01*
X188565892Y-95499500D01*
X188565891Y-95499500D01*
X188434108Y-95499500D01*
X188306808Y-95533609D01*
X188306806Y-95533610D01*
X188192696Y-95599493D01*
X188192682Y-95599502D01*
X188192677Y-95599506D01*
X188099506Y-95692677D01*
X188099502Y-95692682D01*
X188099493Y-95692696D01*
X188033610Y-95806806D01*
X188033609Y-95806808D01*
X187999500Y-95934108D01*
X187999500Y-96006336D01*
X187994476Y-96041273D01*
X187987064Y-96066514D01*
X187955769Y-96119258D01*
X187415490Y-96659539D01*
X187415489Y-96659540D01*
X187359545Y-96715482D01*
X187359540Y-96715487D01*
X187359526Y-96715508D01*
X187320485Y-96783130D01*
X187320010Y-96783936D01*
X187319977Y-96784014D01*
X187299500Y-96860437D01*
X187299500Y-98692670D01*
X187294475Y-98727614D01*
X187290070Y-98742612D01*
X187252327Y-98801355D01*
X187250958Y-98802542D01*
X187196097Y-98830018D01*
X187188539Y-98831663D01*
X187162168Y-98834500D01*
X186825247Y-98834500D01*
X186766770Y-98846131D01*
X186766769Y-98846131D01*
X186766768Y-98846132D01*
X186761355Y-98849024D01*
X186756614Y-98852916D01*
X186700447Y-98890446D01*
X186700446Y-98890447D01*
X186662916Y-98946614D01*
X186659024Y-98951355D01*
X186656132Y-98956768D01*
X186656132Y-98956769D01*
X186656131Y-98956770D01*
X186647072Y-99002316D01*
X186644500Y-99015249D01*
X186644500Y-101057670D01*
X186639475Y-101092614D01*
X186635070Y-101107612D01*
X186597327Y-101166355D01*
X186595958Y-101167542D01*
X186541097Y-101195018D01*
X186533539Y-101196663D01*
X186507168Y-101199500D01*
X186157330Y-101199500D01*
X186122389Y-101194475D01*
X186107390Y-101190070D01*
X186048644Y-101152327D01*
X186047457Y-101150958D01*
X186019977Y-101096083D01*
X186018332Y-101088521D01*
X186015500Y-101062168D01*
X186015500Y-99015063D01*
X186015069Y-99013081D01*
X186003868Y-98956770D01*
X186000975Y-98951358D01*
X185997081Y-98946613D01*
X185986732Y-98931125D01*
X185959552Y-98890447D01*
X185923146Y-98866121D01*
X185903385Y-98852917D01*
X185898641Y-98849024D01*
X185893230Y-98846132D01*
X185893229Y-98846131D01*
X185834752Y-98834500D01*
X185834750Y-98834500D01*
X185502330Y-98834500D01*
X185467389Y-98829475D01*
X185452390Y-98825070D01*
X185393644Y-98787327D01*
X185392457Y-98785958D01*
X185364977Y-98731083D01*
X185363332Y-98723521D01*
X185360500Y-98697168D01*
X185360500Y-97133661D01*
X185365522Y-97098728D01*
X185368439Y-97088794D01*
X185372934Y-97073483D01*
X185404228Y-97020741D01*
X188375545Y-94049423D01*
X188403800Y-94028273D01*
X188426890Y-94015666D01*
X188486313Y-94000500D01*
X188565890Y-94000500D01*
X188565892Y-94000500D01*
X188693186Y-93966392D01*
X188807314Y-93900500D01*
X188900500Y-93807314D01*
X188966392Y-93693186D01*
X189000500Y-93565892D01*
X189000500Y-93434108D01*
X188966392Y-93306814D01*
X188966387Y-93306806D01*
X188957563Y-93291521D01*
X188900500Y-93192686D01*
X188807314Y-93099500D01*
X188807312Y-93099499D01*
X188807307Y-93099495D01*
X188743830Y-93062847D01*
X188743830Y-93062846D01*
X188743827Y-93062846D01*
X188693187Y-93033608D01*
X188609927Y-93011299D01*
X188565892Y-92999500D01*
X188565891Y-92999500D01*
X188434108Y-92999500D01*
X188306808Y-93033609D01*
X188306806Y-93033610D01*
X188192696Y-93099493D01*
X188192682Y-93099502D01*
X188192677Y-93099506D01*
X188099506Y-93192677D01*
X188099502Y-93192682D01*
X188099493Y-93192696D01*
X188033610Y-93306806D01*
X188033609Y-93306808D01*
X187999500Y-93434108D01*
X187999500Y-93506336D01*
X187994476Y-93541273D01*
X187987064Y-93566514D01*
X187955769Y-93619258D01*
X184875490Y-96699539D01*
X184875489Y-96699540D01*
X184819545Y-96755482D01*
X184819540Y-96755487D01*
X184819526Y-96755508D01*
X184780485Y-96823130D01*
X184780009Y-96823937D01*
X184779977Y-96824012D01*
X184775073Y-96842319D01*
X184769262Y-96864009D01*
X184763827Y-96884292D01*
X184763826Y-96884297D01*
X184759500Y-96900439D01*
X184759500Y-98692670D01*
X184754475Y-98727614D01*
X184750070Y-98742612D01*
X184712327Y-98801355D01*
X184710958Y-98802542D01*
X184656097Y-98830018D01*
X184648539Y-98831663D01*
X184622168Y-98834500D01*
X184285247Y-98834500D01*
X184226770Y-98846131D01*
X184226769Y-98846131D01*
X184226768Y-98846132D01*
X184221355Y-98849024D01*
X184216614Y-98852916D01*
X184160447Y-98890446D01*
X184160446Y-98890447D01*
X184122916Y-98946614D01*
X184119024Y-98951355D01*
X184116132Y-98956768D01*
X184116132Y-98956769D01*
X184116131Y-98956770D01*
X184107072Y-99002316D01*
X184104500Y-99015249D01*
X184104500Y-101057670D01*
X184099475Y-101092614D01*
X184095070Y-101107612D01*
X184057327Y-101166355D01*
X184055958Y-101167542D01*
X184001097Y-101195018D01*
X183993539Y-101196663D01*
X183967168Y-101199500D01*
X183617330Y-101199500D01*
X183582389Y-101194475D01*
X183567390Y-101190070D01*
X183508644Y-101152327D01*
X183507457Y-101150958D01*
X183479977Y-101096083D01*
X183478332Y-101088521D01*
X183475500Y-101062168D01*
X183475500Y-99015063D01*
X183475069Y-99013081D01*
X183463868Y-98956770D01*
X183460975Y-98951358D01*
X183457081Y-98946613D01*
X183446732Y-98931125D01*
X183419552Y-98890447D01*
X183383146Y-98866121D01*
X183363385Y-98852917D01*
X183358641Y-98849024D01*
X183353230Y-98846132D01*
X183353229Y-98846131D01*
X183294752Y-98834500D01*
X183294750Y-98834500D01*
X182962330Y-98834500D01*
X182927389Y-98829475D01*
X182912390Y-98825070D01*
X182853644Y-98787327D01*
X182852457Y-98785958D01*
X182824977Y-98731083D01*
X182823332Y-98723521D01*
X182820500Y-98697168D01*
X182820500Y-97173662D01*
X182825522Y-97138729D01*
X182827010Y-97133661D01*
X182832934Y-97113484D01*
X182864228Y-97060742D01*
X185740460Y-94184511D01*
X187125547Y-92799422D01*
X187153796Y-92778275D01*
X187176888Y-92765667D01*
X187236313Y-92750500D01*
X187315890Y-92750500D01*
X187315892Y-92750500D01*
X187443186Y-92716392D01*
X187557314Y-92650500D01*
X187650500Y-92557314D01*
X187716392Y-92443186D01*
X187750500Y-92315892D01*
X187750500Y-92184108D01*
X187716392Y-92056814D01*
X187716387Y-92056806D01*
X187707563Y-92041521D01*
X187650500Y-91942686D01*
X187557314Y-91849500D01*
X187483380Y-91806814D01*
X187443187Y-91783608D01*
X187379539Y-91766554D01*
X187315892Y-91749500D01*
X187315891Y-91749500D01*
X187184108Y-91749500D01*
X187056808Y-91783609D01*
X187056806Y-91783610D01*
X186942696Y-91849493D01*
X186942682Y-91849502D01*
X186942677Y-91849506D01*
X186849506Y-91942677D01*
X186849502Y-91942682D01*
X186849493Y-91942696D01*
X186783610Y-92056806D01*
X186783609Y-92056808D01*
X186749500Y-92184108D01*
X186749500Y-92256336D01*
X186744476Y-92291273D01*
X186737064Y-92316514D01*
X186705769Y-92369258D01*
X186024788Y-93050239D01*
X185996538Y-93071388D01*
X185986611Y-93076809D01*
X185918338Y-93091663D01*
X185852873Y-93067249D01*
X185811000Y-93011317D01*
X185808313Y-93004111D01*
X185800500Y-92960791D01*
X185800500Y-87960439D01*
X185800500Y-87960438D01*
X185780021Y-87884011D01*
X185780017Y-87884004D01*
X185740464Y-87815495D01*
X185740458Y-87815487D01*
X185740454Y-87815483D01*
X185740453Y-87815481D01*
X182709517Y-84784545D01*
X182709515Y-84784544D01*
X182709512Y-84784541D01*
X182709504Y-84784535D01*
X182684164Y-84769905D01*
X182641872Y-84745488D01*
X182641050Y-84745004D01*
X182640995Y-84744981D01*
X182640991Y-84744980D01*
X182640990Y-84744979D01*
X182615513Y-84738152D01*
X182615509Y-84738150D01*
X182564563Y-84724500D01*
X182564562Y-84724500D01*
X182564560Y-84724500D01*
X173461126Y-84724500D01*
X173426190Y-84719477D01*
X173400948Y-84712065D01*
X173348203Y-84680769D01*
X172346980Y-83679545D01*
X172346977Y-83679543D01*
X172346975Y-83679541D01*
X172346967Y-83679535D01*
X172346950Y-83679525D01*
X172343892Y-83677506D01*
X172322046Y-83651660D01*
X172278453Y-83639979D01*
X172278454Y-83639979D01*
X172240238Y-83629739D01*
X172240237Y-83629738D01*
X172202026Y-83619500D01*
X172202025Y-83619500D01*
X172202023Y-83619500D01*
X161061669Y-83619500D01*
X161026733Y-83614477D01*
X161001491Y-83607065D01*
X160948746Y-83575769D01*
X160892479Y-83519502D01*
X160892477Y-83519500D01*
X160835413Y-83486554D01*
X160778350Y-83453608D01*
X160714702Y-83436554D01*
X160651055Y-83419500D01*
X160651054Y-83419500D01*
X160519271Y-83419500D01*
X160391971Y-83453609D01*
X160391969Y-83453610D01*
X160277859Y-83519493D01*
X160277845Y-83519502D01*
X160277840Y-83519506D01*
X160184669Y-83612677D01*
X160184665Y-83612682D01*
X160184656Y-83612696D01*
X160118773Y-83726806D01*
X160118772Y-83726808D01*
X160084663Y-83854108D01*
X160084663Y-83985890D01*
X160118771Y-84113188D01*
X160151717Y-84170250D01*
X160184663Y-84227314D01*
X160277849Y-84320500D01*
X160391977Y-84386392D01*
X160519271Y-84420500D01*
X160519273Y-84420500D01*
X160651053Y-84420500D01*
X160651055Y-84420500D01*
X160778349Y-84386392D01*
X160892477Y-84320500D01*
X160943552Y-84269424D01*
X160971803Y-84248275D01*
X160994895Y-84235667D01*
X161054320Y-84220500D01*
X171968800Y-84220500D01*
X172003732Y-84225521D01*
X172028976Y-84232934D01*
X172081722Y-84264230D01*
X173083004Y-85265512D01*
X173083519Y-85265890D01*
X173086129Y-85267295D01*
X173151467Y-85305017D01*
X173151474Y-85305021D01*
X173227901Y-85325500D01*
X173307025Y-85325500D01*
X182331337Y-85325500D01*
X182366269Y-85330521D01*
X182391513Y-85337934D01*
X182444259Y-85369230D01*
X185150573Y-88075544D01*
X185171723Y-88103796D01*
X185184331Y-88126885D01*
X185199500Y-88186314D01*
X185199500Y-93806337D01*
X185194476Y-93841274D01*
X185187064Y-93866515D01*
X185155769Y-93919259D01*
X182279545Y-96795481D01*
X182279544Y-96795483D01*
X182279526Y-96795508D01*
X182240485Y-96863130D01*
X182240010Y-96863936D01*
X182239977Y-96864014D01*
X182219500Y-96940437D01*
X182219500Y-98692670D01*
X182214475Y-98727614D01*
X182210070Y-98742612D01*
X182172327Y-98801355D01*
X182170958Y-98802542D01*
X182116097Y-98830018D01*
X182108539Y-98831663D01*
X182082168Y-98834500D01*
X181745247Y-98834500D01*
X181686770Y-98846131D01*
X181686769Y-98846131D01*
X181686768Y-98846132D01*
X181681355Y-98849024D01*
X181676614Y-98852916D01*
X181620447Y-98890446D01*
X181620446Y-98890447D01*
X181582916Y-98946614D01*
X181579024Y-98951355D01*
X181576132Y-98956768D01*
X181576132Y-98956769D01*
X181576131Y-98956770D01*
X181567072Y-99002316D01*
X181564500Y-99015249D01*
X181564500Y-101057670D01*
X181559475Y-101092614D01*
X181555070Y-101107612D01*
X181517327Y-101166355D01*
X181515958Y-101167542D01*
X181461097Y-101195018D01*
X181453539Y-101196663D01*
X181427168Y-101199500D01*
X181077330Y-101199500D01*
X181042389Y-101194475D01*
X181027390Y-101190070D01*
X180968644Y-101152327D01*
X180967457Y-101150958D01*
X180939977Y-101096083D01*
X180938332Y-101088521D01*
X180935500Y-101062168D01*
X180935500Y-99015063D01*
X180935069Y-99013081D01*
X180923868Y-98956770D01*
X180920975Y-98951358D01*
X180917081Y-98946613D01*
X180906732Y-98931125D01*
X180879552Y-98890447D01*
X180843146Y-98866121D01*
X180823385Y-98852917D01*
X180818641Y-98849024D01*
X180813230Y-98846132D01*
X180813229Y-98846131D01*
X180754752Y-98834500D01*
X180754750Y-98834500D01*
X180422330Y-98834500D01*
X180387389Y-98829475D01*
X180372390Y-98825070D01*
X180313644Y-98787327D01*
X180312457Y-98785958D01*
X180284977Y-98731083D01*
X180283332Y-98723521D01*
X180280500Y-98697168D01*
X180280500Y-97940440D01*
X180280499Y-97940436D01*
X180278803Y-97934108D01*
X180260020Y-97864009D01*
X180259993Y-97863946D01*
X180259512Y-97863129D01*
X180250992Y-97848373D01*
X180220464Y-97795495D01*
X180220458Y-97795487D01*
X180220454Y-97795483D01*
X180220453Y-97795481D01*
X176614118Y-94189147D01*
X176592966Y-94160891D01*
X176580359Y-94137802D01*
X176565192Y-94078377D01*
X176565192Y-92711813D01*
X176570214Y-92676880D01*
X176577626Y-92651635D01*
X176608922Y-92598891D01*
X176631381Y-92576433D01*
X176665192Y-92542622D01*
X176731084Y-92428494D01*
X176765192Y-92301200D01*
X176765192Y-92169416D01*
X176731084Y-92042122D01*
X176731079Y-92042114D01*
X176722255Y-92026829D01*
X176665192Y-91927994D01*
X176572006Y-91834808D01*
X176514942Y-91801862D01*
X176457879Y-91768916D01*
X176385416Y-91749500D01*
X176330584Y-91734808D01*
X176330583Y-91734808D01*
X176198800Y-91734808D01*
X176071500Y-91768917D01*
X176071498Y-91768918D01*
X175957388Y-91834801D01*
X175957374Y-91834810D01*
X175957369Y-91834814D01*
X175864198Y-91927985D01*
X175864194Y-91927990D01*
X175864185Y-91928004D01*
X175798302Y-92042114D01*
X175798301Y-92042116D01*
X175798300Y-92042120D01*
X175764192Y-92169416D01*
X175764192Y-92301200D01*
X175765830Y-92307314D01*
X175768128Y-92315887D01*
X175768129Y-92315892D01*
X175798300Y-92428496D01*
X175806782Y-92443186D01*
X175864189Y-92542618D01*
X175864191Y-92542620D01*
X175864191Y-92542621D01*
X175864194Y-92542624D01*
X175915265Y-92593695D01*
X175936415Y-92621947D01*
X175949023Y-92645036D01*
X175964192Y-92704465D01*
X175964192Y-94304255D01*
X175977843Y-94355203D01*
X175984669Y-94380677D01*
X175984670Y-94380679D01*
X175984671Y-94380682D01*
X175984672Y-94380683D01*
X176003892Y-94413973D01*
X176024231Y-94449201D01*
X176024237Y-94449209D01*
X179630573Y-98055544D01*
X179651723Y-98083796D01*
X179664331Y-98106885D01*
X179679500Y-98166314D01*
X179679500Y-98692670D01*
X179674475Y-98727614D01*
X179670070Y-98742612D01*
X179632327Y-98801355D01*
X179630958Y-98802542D01*
X179576097Y-98830018D01*
X179568539Y-98831663D01*
X179542168Y-98834500D01*
X179205247Y-98834500D01*
X179146770Y-98846131D01*
X179146769Y-98846131D01*
X179146768Y-98846132D01*
X179141355Y-98849024D01*
X179136614Y-98852916D01*
X179080447Y-98890446D01*
X179080446Y-98890447D01*
X179042916Y-98946614D01*
X179039024Y-98951355D01*
X179036132Y-98956768D01*
X179036132Y-98956769D01*
X179036131Y-98956770D01*
X179027072Y-99002316D01*
X179024500Y-99015249D01*
X179024500Y-101057670D01*
X179019475Y-101092614D01*
X179015070Y-101107612D01*
X178977327Y-101166355D01*
X178975958Y-101167542D01*
X178921097Y-101195018D01*
X178913539Y-101196663D01*
X178887168Y-101199500D01*
X178537330Y-101199500D01*
X178502389Y-101194475D01*
X178487390Y-101190070D01*
X178428644Y-101152327D01*
X178427457Y-101150958D01*
X178399977Y-101096083D01*
X178398332Y-101088521D01*
X178395500Y-101062168D01*
X178395500Y-99015063D01*
X178395069Y-99013081D01*
X178383868Y-98956770D01*
X178380975Y-98951358D01*
X178377081Y-98946613D01*
X178366732Y-98931125D01*
X178339552Y-98890447D01*
X178303146Y-98866121D01*
X178283385Y-98852917D01*
X178278641Y-98849024D01*
X178273230Y-98846132D01*
X178273229Y-98846131D01*
X178214752Y-98834500D01*
X178214750Y-98834500D01*
X177942330Y-98834500D01*
X177907389Y-98829475D01*
X177892390Y-98825070D01*
X177833644Y-98787327D01*
X177832457Y-98785958D01*
X177804977Y-98731083D01*
X177803332Y-98723521D01*
X177800500Y-98697168D01*
X177800500Y-97460440D01*
X177800499Y-97460436D01*
X177780020Y-97384009D01*
X177779993Y-97383946D01*
X177779512Y-97383129D01*
X177770992Y-97368373D01*
X177740464Y-97315495D01*
X177740458Y-97315487D01*
X177740454Y-97315483D01*
X177740453Y-97315481D01*
X175549426Y-95124455D01*
X175528274Y-95096199D01*
X175515667Y-95073110D01*
X175500500Y-95013685D01*
X175500500Y-94934110D01*
X175500500Y-94934108D01*
X175466392Y-94806814D01*
X175466387Y-94806806D01*
X175457563Y-94791521D01*
X175400500Y-94692686D01*
X175307314Y-94599500D01*
X175250250Y-94566554D01*
X175193187Y-94533608D01*
X175119082Y-94513752D01*
X175119081Y-94513751D01*
X175065893Y-94499500D01*
X175065892Y-94499500D01*
X174934108Y-94499500D01*
X174806808Y-94533609D01*
X174806806Y-94533610D01*
X174692696Y-94599493D01*
X174692682Y-94599502D01*
X174692677Y-94599506D01*
X174599506Y-94692677D01*
X174599502Y-94692682D01*
X174599493Y-94692696D01*
X174533610Y-94806806D01*
X174533609Y-94806808D01*
X174533608Y-94806812D01*
X174499500Y-94934108D01*
X174499500Y-95065892D01*
X174511814Y-95111848D01*
X174533608Y-95193187D01*
X174566554Y-95250250D01*
X174599500Y-95307314D01*
X174692686Y-95400500D01*
X174806814Y-95466392D01*
X174934108Y-95500500D01*
X174934110Y-95500500D01*
X175006337Y-95500500D01*
X175041269Y-95505521D01*
X175066513Y-95512934D01*
X175119259Y-95544230D01*
X177150573Y-97575544D01*
X177171723Y-97603796D01*
X177184331Y-97626885D01*
X177199500Y-97686314D01*
X177199500Y-98692670D01*
X177194475Y-98727614D01*
X177190070Y-98742612D01*
X177152327Y-98801355D01*
X177150958Y-98802542D01*
X177096097Y-98830018D01*
X177088539Y-98831663D01*
X177062168Y-98834500D01*
X176665247Y-98834500D01*
X176606770Y-98846131D01*
X176606769Y-98846131D01*
X176606768Y-98846132D01*
X176601355Y-98849024D01*
X176596614Y-98852916D01*
X176540447Y-98890446D01*
X176540446Y-98890447D01*
X176502916Y-98946614D01*
X176499024Y-98951355D01*
X176496132Y-98956768D01*
X176496132Y-98956769D01*
X176496131Y-98956770D01*
X176487072Y-99002316D01*
X176484500Y-99015249D01*
X176484500Y-101057670D01*
X176479475Y-101092614D01*
X176475070Y-101107612D01*
X176437327Y-101166355D01*
X176435958Y-101167542D01*
X176381097Y-101195018D01*
X176373539Y-101196663D01*
X176347168Y-101199500D01*
X175997330Y-101199500D01*
X175962389Y-101194475D01*
X175947390Y-101190070D01*
X175888644Y-101152327D01*
X175887457Y-101150958D01*
X175859977Y-101096083D01*
X175858332Y-101088521D01*
X175855500Y-101062168D01*
X175855500Y-99027607D01*
X175855500Y-99015249D01*
X175855499Y-99015247D01*
X175843868Y-98956770D01*
X175843867Y-98956769D01*
X175799551Y-98890446D01*
X175766307Y-98868233D01*
X175748442Y-98846856D01*
X175748441Y-98846854D01*
X175745976Y-98843905D01*
X175743985Y-98839331D01*
X175743331Y-98838227D01*
X175743087Y-98837268D01*
X175718090Y-98779842D01*
X175729265Y-98710874D01*
X175734017Y-98700941D01*
X175758191Y-98666777D01*
X175875546Y-98549422D01*
X175903801Y-98528272D01*
X175926889Y-98515666D01*
X175986312Y-98500500D01*
X176065890Y-98500500D01*
X176065892Y-98500500D01*
X176193186Y-98466392D01*
X176307314Y-98400500D01*
X176400500Y-98307314D01*
X176466392Y-98193186D01*
X176500500Y-98065892D01*
X176500500Y-97934108D01*
X176466392Y-97806814D01*
X176459853Y-97795489D01*
X176459848Y-97795481D01*
X176427551Y-97739540D01*
X176427550Y-97739539D01*
X176400500Y-97692686D01*
X176307314Y-97599500D01*
X176250250Y-97566554D01*
X176193187Y-97533608D01*
X176129539Y-97516554D01*
X176065892Y-97499500D01*
X176065891Y-97499500D01*
X175934108Y-97499500D01*
X175806808Y-97533609D01*
X175806806Y-97533610D01*
X175692696Y-97599493D01*
X175692682Y-97599502D01*
X175692677Y-97599506D01*
X175599506Y-97692677D01*
X175599502Y-97692682D01*
X175599493Y-97692696D01*
X175533610Y-97806806D01*
X175533609Y-97806808D01*
X175499500Y-97934108D01*
X175499500Y-98006336D01*
X175494476Y-98041273D01*
X175487064Y-98066514D01*
X175455769Y-98119258D01*
X174789455Y-98785573D01*
X174761204Y-98806722D01*
X174738116Y-98819330D01*
X174678686Y-98834500D01*
X174125247Y-98834500D01*
X174066770Y-98846131D01*
X174066769Y-98846131D01*
X174066768Y-98846132D01*
X174061355Y-98849024D01*
X174056614Y-98852916D01*
X174000447Y-98890446D01*
X174000446Y-98890447D01*
X173962916Y-98946614D01*
X173959024Y-98951355D01*
X173956132Y-98956768D01*
X173956132Y-98956769D01*
X173956131Y-98956770D01*
X173947072Y-99002316D01*
X173944500Y-99015249D01*
X173944500Y-100296153D01*
X173939475Y-100331094D01*
X173935564Y-100344411D01*
X173897787Y-100403187D01*
X173834238Y-100432208D01*
X173825823Y-100433418D01*
X173776082Y-100430455D01*
X173711522Y-100413157D01*
X173711521Y-100413157D01*
X173660552Y-100399500D01*
X173660551Y-100399500D01*
X173528765Y-100399500D01*
X173488811Y-100410205D01*
X173453772Y-100414394D01*
X173439898Y-100414064D01*
X173373346Y-100392791D01*
X173328860Y-100338914D01*
X173328859Y-100338912D01*
X173325512Y-100331096D01*
X173315500Y-100282283D01*
X173315500Y-99015063D01*
X173315069Y-99013081D01*
X173303868Y-98956770D01*
X173300975Y-98951358D01*
X173297081Y-98946613D01*
X173286732Y-98931125D01*
X173259552Y-98890447D01*
X173223146Y-98866121D01*
X173203385Y-98852917D01*
X173198641Y-98849024D01*
X173193230Y-98846132D01*
X173193229Y-98846131D01*
X173134752Y-98834500D01*
X173134750Y-98834500D01*
X171585249Y-98834500D01*
X171585247Y-98834500D01*
X171526770Y-98846131D01*
X171526769Y-98846131D01*
X171526768Y-98846132D01*
X171521355Y-98849024D01*
X171516614Y-98852916D01*
X171460447Y-98890446D01*
X171460446Y-98890447D01*
X171422916Y-98946614D01*
X171419024Y-98951355D01*
X171416132Y-98956768D01*
X171416132Y-98956769D01*
X171416131Y-98956770D01*
X171407072Y-99002316D01*
X171404500Y-99015249D01*
X171404500Y-101057670D01*
X171399475Y-101092614D01*
X171395070Y-101107612D01*
X171357327Y-101166355D01*
X171355958Y-101167542D01*
X171301097Y-101195018D01*
X171293539Y-101196663D01*
X171267168Y-101199500D01*
X163317330Y-101199500D01*
X163282389Y-101194475D01*
X163267390Y-101190070D01*
X163208644Y-101152327D01*
X163207457Y-101150958D01*
X163179977Y-101096083D01*
X163178332Y-101088521D01*
X163175500Y-101062168D01*
X163175500Y-99545213D01*
X165844237Y-99545213D01*
X165874494Y-99697317D01*
X165874495Y-99697323D01*
X165874502Y-99697344D01*
X165923529Y-99815709D01*
X165923534Y-99815719D01*
X165994724Y-99922261D01*
X165994725Y-99922262D01*
X165994730Y-99922268D01*
X166085321Y-100012859D01*
X166085327Y-100012864D01*
X166085328Y-100012865D01*
X166191869Y-100084054D01*
X166191872Y-100084055D01*
X166191873Y-100084056D01*
X166304651Y-100130770D01*
X166309053Y-100132852D01*
X166310252Y-100133090D01*
X166310256Y-100133092D01*
X166310259Y-100133092D01*
X166310260Y-100133092D01*
X166310261Y-100133093D01*
X166407899Y-100152515D01*
X166435927Y-100158091D01*
X166564071Y-100158091D01*
X166564073Y-100158091D01*
X166648615Y-100141273D01*
X166689744Y-100133092D01*
X166808127Y-100084056D01*
X166914669Y-100012867D01*
X167005276Y-99922260D01*
X167076465Y-99815718D01*
X167125501Y-99697335D01*
X167150500Y-99571660D01*
X167150500Y-99545213D01*
X168844237Y-99545213D01*
X168874494Y-99697317D01*
X168874495Y-99697323D01*
X168874502Y-99697344D01*
X168923529Y-99815709D01*
X168923534Y-99815719D01*
X168994724Y-99922261D01*
X168994725Y-99922262D01*
X168994730Y-99922268D01*
X169085321Y-100012859D01*
X169085327Y-100012864D01*
X169085328Y-100012865D01*
X169191869Y-100084054D01*
X169191872Y-100084055D01*
X169191873Y-100084056D01*
X169304651Y-100130770D01*
X169309053Y-100132852D01*
X169310252Y-100133090D01*
X169310256Y-100133092D01*
X169310259Y-100133092D01*
X169310260Y-100133092D01*
X169310261Y-100133093D01*
X169407899Y-100152515D01*
X169435927Y-100158091D01*
X169564071Y-100158091D01*
X169564073Y-100158091D01*
X169648615Y-100141273D01*
X169689744Y-100133092D01*
X169808127Y-100084056D01*
X169914669Y-100012867D01*
X170005276Y-99922260D01*
X170076465Y-99815718D01*
X170125501Y-99697335D01*
X170150500Y-99571660D01*
X170150500Y-99443522D01*
X170150500Y-99443519D01*
X170150500Y-99443516D01*
X170125262Y-99316646D01*
X170123176Y-99312235D01*
X170076465Y-99199466D01*
X170076465Y-99199464D01*
X170076464Y-99199463D01*
X170076463Y-99199461D01*
X170076463Y-99199460D01*
X170005274Y-99092919D01*
X170005273Y-99092918D01*
X170005268Y-99092912D01*
X169914677Y-99002321D01*
X169914671Y-99002316D01*
X169914670Y-99002315D01*
X169808127Y-98931125D01*
X169808128Y-98931125D01*
X169808118Y-98931120D01*
X169689753Y-98882093D01*
X169689733Y-98882086D01*
X169689725Y-98882084D01*
X169564074Y-98857091D01*
X169564071Y-98857091D01*
X169564069Y-98857091D01*
X169435931Y-98857091D01*
X169435929Y-98857091D01*
X169435926Y-98857091D01*
X169310273Y-98882084D01*
X169310265Y-98882086D01*
X169310245Y-98882093D01*
X169191880Y-98931120D01*
X169191870Y-98931125D01*
X169085328Y-99002315D01*
X169085327Y-99002316D01*
X169085321Y-99002321D01*
X168994730Y-99092912D01*
X168994725Y-99092918D01*
X168994724Y-99092919D01*
X168923534Y-99199461D01*
X168923529Y-99199471D01*
X168874502Y-99317836D01*
X168874495Y-99317856D01*
X168874493Y-99317864D01*
X168849500Y-99443514D01*
X168849500Y-99527293D01*
X168844237Y-99545213D01*
X167150500Y-99545213D01*
X167150500Y-99443522D01*
X167150500Y-99443519D01*
X167150500Y-99443516D01*
X167125262Y-99316646D01*
X167123176Y-99312235D01*
X167076465Y-99199466D01*
X167076465Y-99199464D01*
X167076464Y-99199463D01*
X167076463Y-99199461D01*
X167076463Y-99199460D01*
X167005274Y-99092919D01*
X167005273Y-99092918D01*
X167005268Y-99092912D01*
X166914677Y-99002321D01*
X166914671Y-99002316D01*
X166914670Y-99002315D01*
X166808127Y-98931125D01*
X166808128Y-98931125D01*
X166808118Y-98931120D01*
X166689753Y-98882093D01*
X166689733Y-98882086D01*
X166689725Y-98882084D01*
X166564074Y-98857091D01*
X166564071Y-98857091D01*
X166564069Y-98857091D01*
X166435931Y-98857091D01*
X166435929Y-98857091D01*
X166435926Y-98857091D01*
X166310273Y-98882084D01*
X166310265Y-98882086D01*
X166310245Y-98882093D01*
X166191880Y-98931120D01*
X166191870Y-98931125D01*
X166085328Y-99002315D01*
X166085327Y-99002316D01*
X166085321Y-99002321D01*
X165994730Y-99092912D01*
X165994725Y-99092918D01*
X165994724Y-99092919D01*
X165923534Y-99199461D01*
X165923529Y-99199471D01*
X165874502Y-99317836D01*
X165874495Y-99317856D01*
X165874493Y-99317864D01*
X165849500Y-99443514D01*
X165849500Y-99527293D01*
X165844237Y-99545213D01*
X163175500Y-99545213D01*
X163175500Y-99015063D01*
X163175069Y-99013081D01*
X163163868Y-98956770D01*
X163160975Y-98951358D01*
X163157081Y-98946613D01*
X163146732Y-98931125D01*
X163119552Y-98890447D01*
X163083146Y-98866121D01*
X163063385Y-98852917D01*
X163058641Y-98849024D01*
X163053230Y-98846132D01*
X163053229Y-98846131D01*
X162994752Y-98834500D01*
X162994750Y-98834500D01*
X161445249Y-98834500D01*
X161445247Y-98834500D01*
X161386770Y-98846131D01*
X161386769Y-98846131D01*
X161386768Y-98846132D01*
X161381355Y-98849024D01*
X161376614Y-98852916D01*
X161320447Y-98890446D01*
X161320446Y-98890447D01*
X161282916Y-98946614D01*
X161279024Y-98951355D01*
X161276132Y-98956768D01*
X161276132Y-98956769D01*
X161276131Y-98956770D01*
X161267072Y-99002316D01*
X161264500Y-99015249D01*
X161264500Y-101057670D01*
X161259475Y-101092614D01*
X161255070Y-101107612D01*
X161217327Y-101166355D01*
X161215958Y-101167542D01*
X161161097Y-101195018D01*
X161153539Y-101196663D01*
X161127168Y-101199500D01*
X153509143Y-101199500D01*
X153503063Y-101199351D01*
X153496971Y-101199051D01*
X153490905Y-101198604D01*
X153436351Y-101193231D01*
X153381743Y-101187852D01*
X153369709Y-101186066D01*
X153357826Y-101183703D01*
X153346025Y-101180747D01*
X153249824Y-101151565D01*
X153238366Y-101147465D01*
X153227169Y-101142827D01*
X153216169Y-101137624D01*
X153127518Y-101090239D01*
X153117080Y-101083983D01*
X153107005Y-101077251D01*
X153097231Y-101070002D01*
X153019525Y-101006230D01*
X153010509Y-100998058D01*
X153001940Y-100989489D01*
X152993768Y-100980473D01*
X152929996Y-100902767D01*
X152922752Y-100893001D01*
X152916009Y-100882908D01*
X152909757Y-100872476D01*
X152862374Y-100783829D01*
X152857171Y-100772829D01*
X152852533Y-100761632D01*
X152848434Y-100750175D01*
X152819251Y-100653973D01*
X152816292Y-100642159D01*
X152813931Y-100630285D01*
X152812147Y-100618258D01*
X152812147Y-100618255D01*
X152801392Y-100509058D01*
X152800948Y-100503028D01*
X152800647Y-100496917D01*
X152800500Y-100490857D01*
X152800500Y-95906383D01*
X167549500Y-95906383D01*
X167549500Y-95912981D01*
X167549500Y-96093625D01*
X167586020Y-96277230D01*
X167586022Y-96277237D01*
X167586030Y-96277260D01*
X167657667Y-96450209D01*
X167657675Y-96450227D01*
X167657684Y-96450242D01*
X167761698Y-96605909D01*
X167761699Y-96605910D01*
X167761704Y-96605916D01*
X167894082Y-96738294D01*
X167894088Y-96738299D01*
X167894092Y-96738302D01*
X168049763Y-96842319D01*
X168049765Y-96842320D01*
X168049770Y-96842323D01*
X168151097Y-96884293D01*
X168151098Y-96884294D01*
X168173193Y-96893446D01*
X168222749Y-96913973D01*
X168254370Y-96920262D01*
X168314517Y-96932227D01*
X168314536Y-96932229D01*
X168314562Y-96932235D01*
X168314566Y-96932236D01*
X168375777Y-96944412D01*
X168406382Y-96950500D01*
X168406383Y-96950500D01*
X168593618Y-96950500D01*
X168604099Y-96948414D01*
X168611978Y-96946848D01*
X168611980Y-96946846D01*
X168685433Y-96932236D01*
X168685434Y-96932236D01*
X168708540Y-96927639D01*
X168708544Y-96927639D01*
X168708544Y-96927638D01*
X168708545Y-96927638D01*
X168777251Y-96913973D01*
X168848901Y-96884294D01*
X168950230Y-96842323D01*
X169105908Y-96738302D01*
X171317853Y-94526356D01*
X171346103Y-94505208D01*
X171369195Y-94492600D01*
X171428620Y-94477433D01*
X172597737Y-94477433D01*
X172605586Y-94475051D01*
X172777251Y-94440906D01*
X172950231Y-94369255D01*
X173105908Y-94265235D01*
X173238302Y-94132841D01*
X173282379Y-94066871D01*
X173289617Y-94057113D01*
X173297316Y-94047732D01*
X173305467Y-94038740D01*
X178665605Y-88678604D01*
X178693855Y-88657456D01*
X178716947Y-88644848D01*
X178776372Y-88629681D01*
X182836725Y-88629681D01*
X182844574Y-88627299D01*
X183016239Y-88593154D01*
X183189219Y-88521503D01*
X183344896Y-88417483D01*
X183477290Y-88285089D01*
X183581310Y-88129412D01*
X183652961Y-87956432D01*
X183689488Y-87772797D01*
X183689488Y-87585565D01*
X183652961Y-87401930D01*
X183581310Y-87228950D01*
X183581309Y-87228949D01*
X183581306Y-87228943D01*
X183581306Y-87228942D01*
X183477288Y-87073270D01*
X183477287Y-87073269D01*
X183477282Y-87073263D01*
X183344904Y-86940885D01*
X183344898Y-86940880D01*
X183344897Y-86940879D01*
X183189219Y-86836858D01*
X183189220Y-86836858D01*
X183189210Y-86836853D01*
X183016240Y-86765208D01*
X183016213Y-86765202D01*
X182832610Y-86728681D01*
X182832608Y-86728681D01*
X182832604Y-86728681D01*
X178414436Y-86728681D01*
X178227202Y-86728681D01*
X178227197Y-86728681D01*
X178227195Y-86728681D01*
X178043592Y-86765202D01*
X178043566Y-86765208D01*
X178043564Y-86765209D01*
X177886014Y-86830468D01*
X177886013Y-86830469D01*
X177870591Y-86836856D01*
X177870574Y-86836866D01*
X177714907Y-86940880D01*
X177714906Y-86940881D01*
X177714900Y-86940886D01*
X172128283Y-92527506D01*
X172100032Y-92548655D01*
X172076944Y-92561263D01*
X172017514Y-92576433D01*
X170879449Y-92576433D01*
X170863739Y-92579558D01*
X170847920Y-92582704D01*
X170832317Y-92585808D01*
X170832316Y-92585807D01*
X170707798Y-92610576D01*
X170699627Y-92611380D01*
X170674119Y-92621947D01*
X170631158Y-92639742D01*
X170627900Y-92641091D01*
X170624156Y-92642642D01*
X170624155Y-92642641D01*
X170522836Y-92684608D01*
X170522835Y-92684609D01*
X170367156Y-92788631D01*
X170367155Y-92788632D01*
X170367149Y-92788637D01*
X167761704Y-95394082D01*
X167761699Y-95394088D01*
X167761698Y-95394089D01*
X167657676Y-95549768D01*
X167656977Y-95551197D01*
X167655992Y-95553836D01*
X167611694Y-95660783D01*
X167611693Y-95660787D01*
X167598480Y-95692686D01*
X167591668Y-95709130D01*
X167591667Y-95709133D01*
X167587175Y-95719979D01*
X167586027Y-95722750D01*
X167549500Y-95906383D01*
X152800500Y-95906383D01*
X152800500Y-91934108D01*
X157999500Y-91934108D01*
X157999500Y-92065891D01*
X158031283Y-92184511D01*
X158033609Y-92193189D01*
X158060902Y-92240461D01*
X158060903Y-92240462D01*
X158099497Y-92307310D01*
X158099499Y-92307313D01*
X158099500Y-92307314D01*
X158192686Y-92400500D01*
X158306814Y-92466392D01*
X158434108Y-92500500D01*
X158434110Y-92500500D01*
X158565890Y-92500500D01*
X158565892Y-92500500D01*
X158693186Y-92466392D01*
X158807314Y-92400500D01*
X158858389Y-92349424D01*
X158886640Y-92328275D01*
X158909732Y-92315667D01*
X158969157Y-92300500D01*
X169039560Y-92300500D01*
X169039562Y-92300500D01*
X169115989Y-92280021D01*
X169184511Y-92240460D01*
X169240460Y-92184511D01*
X169875546Y-91549422D01*
X169903800Y-91528273D01*
X169926890Y-91515666D01*
X169986313Y-91500500D01*
X170065890Y-91500500D01*
X170065892Y-91500500D01*
X170193186Y-91466392D01*
X170307314Y-91400500D01*
X170400500Y-91307314D01*
X170466392Y-91193186D01*
X170500500Y-91065892D01*
X170500500Y-90934108D01*
X170466392Y-90806814D01*
X170466387Y-90806806D01*
X170456197Y-90789156D01*
X170400500Y-90692686D01*
X170307314Y-90599500D01*
X170250250Y-90566554D01*
X170193187Y-90533608D01*
X170129539Y-90516554D01*
X170065892Y-90499500D01*
X170065891Y-90499500D01*
X169934108Y-90499500D01*
X169806808Y-90533609D01*
X169806806Y-90533610D01*
X169692696Y-90599493D01*
X169692682Y-90599502D01*
X169692677Y-90599506D01*
X169599506Y-90692677D01*
X169599502Y-90692682D01*
X169599501Y-90692684D01*
X169533610Y-90806806D01*
X169533609Y-90806808D01*
X169499500Y-90934108D01*
X169499500Y-91006336D01*
X169494476Y-91041273D01*
X169487064Y-91066514D01*
X169455769Y-91119258D01*
X168924455Y-91650573D01*
X168896204Y-91671722D01*
X168873116Y-91684330D01*
X168813686Y-91699500D01*
X158976506Y-91699500D01*
X158941570Y-91694477D01*
X158916328Y-91687065D01*
X158863583Y-91655769D01*
X158807316Y-91599502D01*
X158807314Y-91599500D01*
X158750250Y-91566554D01*
X158693187Y-91533608D01*
X158629539Y-91516554D01*
X158565892Y-91499500D01*
X158565891Y-91499500D01*
X158434108Y-91499500D01*
X158306808Y-91533609D01*
X158306806Y-91533610D01*
X158192696Y-91599493D01*
X158192682Y-91599502D01*
X158192677Y-91599506D01*
X158099506Y-91692677D01*
X158099502Y-91692682D01*
X158099493Y-91692696D01*
X158033610Y-91806806D01*
X158033609Y-91806808D01*
X158022168Y-91849506D01*
X157999500Y-91934108D01*
X152800500Y-91934108D01*
X152800500Y-90280318D01*
X153224178Y-90280318D01*
X153264543Y-90483241D01*
X153264549Y-90483268D01*
X153312694Y-90599500D01*
X153343738Y-90674445D01*
X153355923Y-90692682D01*
X153458704Y-90846506D01*
X153605015Y-90992817D01*
X153605019Y-90992820D01*
X153605021Y-90992822D01*
X153605024Y-90992824D01*
X153605028Y-90992827D01*
X153605027Y-90992827D01*
X153605090Y-90992879D01*
X153605127Y-90992893D01*
X153777081Y-91107788D01*
X153968259Y-91186977D01*
X154159219Y-91224961D01*
X154168238Y-91226755D01*
X154170473Y-91227256D01*
X154171211Y-91227347D01*
X154378145Y-91227347D01*
X154382265Y-91227347D01*
X154390114Y-91224965D01*
X154581099Y-91186977D01*
X154772277Y-91107788D01*
X154944334Y-90992824D01*
X155090656Y-90846502D01*
X155205620Y-90674445D01*
X155284809Y-90483267D01*
X155325179Y-90280312D01*
X155325179Y-90073382D01*
X155284809Y-89870427D01*
X155205620Y-89679249D01*
X155090725Y-89507296D01*
X155090715Y-89507264D01*
X155090659Y-89507195D01*
X155090659Y-89507196D01*
X155090656Y-89507192D01*
X155090654Y-89507189D01*
X155090652Y-89507187D01*
X155090649Y-89507183D01*
X154944341Y-89360875D01*
X154944334Y-89360869D01*
X154858305Y-89303387D01*
X154858304Y-89303387D01*
X154772283Y-89245909D01*
X154772274Y-89245904D01*
X154648689Y-89194714D01*
X154581099Y-89166717D01*
X154581091Y-89166715D01*
X154581083Y-89166713D01*
X154581073Y-89166711D01*
X154378150Y-89126347D01*
X154378148Y-89126347D01*
X154378144Y-89126347D01*
X154171214Y-89126347D01*
X154171209Y-89126347D01*
X154171207Y-89126347D01*
X153968283Y-89166711D01*
X153968258Y-89166717D01*
X153777083Y-89245904D01*
X153605016Y-89360874D01*
X153458706Y-89507184D01*
X153343736Y-89679251D01*
X153264549Y-89870426D01*
X153264543Y-89870451D01*
X153224179Y-90073374D01*
X153224179Y-90073377D01*
X153224179Y-90280316D01*
X153224179Y-90280318D01*
X153224178Y-90280318D01*
X152800500Y-90280318D01*
X152800500Y-85522577D01*
X153224179Y-85522577D01*
X153224179Y-86831113D01*
X153226083Y-86851426D01*
X153226491Y-86855776D01*
X153226657Y-86859346D01*
X153227032Y-86861546D01*
X153227032Y-86861548D01*
X153271885Y-86989727D01*
X153271886Y-86989729D01*
X153352529Y-87098997D01*
X153461796Y-87179639D01*
X153461797Y-87179640D01*
X153589978Y-87224493D01*
X153589982Y-87224494D01*
X153608421Y-87226222D01*
X153620409Y-87227347D01*
X153620413Y-87227347D01*
X153620418Y-87227347D01*
X154928949Y-87227347D01*
X154928950Y-87227347D01*
X154953599Y-87225035D01*
X154957177Y-87224867D01*
X154959378Y-87224493D01*
X154959380Y-87224493D01*
X155023469Y-87202066D01*
X155087561Y-87179640D01*
X155196829Y-87098997D01*
X155277472Y-86989729D01*
X155287940Y-86959809D01*
X155299897Y-86925641D01*
X155299898Y-86925637D01*
X155322325Y-86861548D01*
X155322325Y-86861546D01*
X155322699Y-86859346D01*
X155322867Y-86855765D01*
X155325179Y-86831114D01*
X155325179Y-85929948D01*
X157342429Y-85929948D01*
X157342429Y-86061730D01*
X157376537Y-86189028D01*
X157409483Y-86246090D01*
X157442429Y-86303154D01*
X157535615Y-86396340D01*
X157634450Y-86453403D01*
X157649015Y-86461812D01*
X157649743Y-86462232D01*
X157777037Y-86496340D01*
X157777039Y-86496340D01*
X157908818Y-86496340D01*
X157908821Y-86496340D01*
X157950651Y-86485131D01*
X157985691Y-86480942D01*
X158004502Y-86481390D01*
X158066085Y-86499473D01*
X158074979Y-86504894D01*
X158098124Y-86523095D01*
X159815541Y-88240512D01*
X159816056Y-88240890D01*
X159818666Y-88242295D01*
X159884004Y-88280017D01*
X159884011Y-88280021D01*
X159960438Y-88300500D01*
X160039562Y-88300500D01*
X171174878Y-88300500D01*
X171209810Y-88305521D01*
X171235054Y-88312934D01*
X171287800Y-88344230D01*
X171344070Y-88400500D01*
X171458198Y-88466392D01*
X171585492Y-88500500D01*
X171585494Y-88500500D01*
X171717274Y-88500500D01*
X171717276Y-88500500D01*
X171844570Y-88466392D01*
X171958698Y-88400500D01*
X172051884Y-88307314D01*
X172117776Y-88193186D01*
X172151884Y-88065892D01*
X172151884Y-87934108D01*
X172117776Y-87806814D01*
X172051884Y-87692686D01*
X171958698Y-87599500D01*
X171901634Y-87566554D01*
X171844571Y-87533608D01*
X171780923Y-87516554D01*
X171717276Y-87499500D01*
X171717275Y-87499500D01*
X171585492Y-87499500D01*
X171458192Y-87533609D01*
X171458190Y-87533610D01*
X171344080Y-87599493D01*
X171344067Y-87599501D01*
X171292992Y-87650576D01*
X171264741Y-87671725D01*
X171241656Y-87684331D01*
X171182227Y-87699500D01*
X160193663Y-87699500D01*
X160158727Y-87694477D01*
X160133485Y-87687065D01*
X160080740Y-87655769D01*
X158374261Y-85949290D01*
X158354556Y-85923610D01*
X158338787Y-85896298D01*
X158326400Y-85866395D01*
X158309321Y-85802654D01*
X158243429Y-85688526D01*
X158150243Y-85595340D01*
X158093179Y-85562394D01*
X158036116Y-85529448D01*
X157972468Y-85512394D01*
X157908821Y-85495340D01*
X157908820Y-85495340D01*
X157777037Y-85495340D01*
X157649737Y-85529449D01*
X157649735Y-85529450D01*
X157535625Y-85595333D01*
X157535611Y-85595342D01*
X157535606Y-85595346D01*
X157442435Y-85688517D01*
X157442431Y-85688522D01*
X157442422Y-85688536D01*
X157376539Y-85802646D01*
X157376538Y-85802648D01*
X157342429Y-85929948D01*
X155325179Y-85929948D01*
X155325179Y-85522575D01*
X155322867Y-85497926D01*
X155322699Y-85494349D01*
X155322325Y-85492147D01*
X155322325Y-85492145D01*
X155277472Y-85363966D01*
X155277471Y-85363964D01*
X155275888Y-85361819D01*
X155263612Y-85345185D01*
X155196830Y-85254698D01*
X155196829Y-85254697D01*
X155087561Y-85174054D01*
X155087559Y-85174053D01*
X154959383Y-85129201D01*
X154959381Y-85129200D01*
X154959379Y-85129200D01*
X154928949Y-85126347D01*
X154928945Y-85126347D01*
X154928943Y-85126347D01*
X153620413Y-85126347D01*
X153620409Y-85126347D01*
X153601753Y-85128096D01*
X153595748Y-85128659D01*
X153592178Y-85128825D01*
X153589976Y-85129200D01*
X153461797Y-85174053D01*
X153352528Y-85254696D01*
X153271885Y-85363965D01*
X153227032Y-85492144D01*
X153226657Y-85494346D01*
X153226556Y-85496511D01*
X153226580Y-85496917D01*
X153226529Y-85497502D01*
X153224179Y-85522577D01*
X152800500Y-85522577D01*
X152800500Y-78670943D01*
X154649500Y-78670943D01*
X154649500Y-78829056D01*
X154686289Y-78966358D01*
X154686300Y-78966394D01*
X154690422Y-78981781D01*
X154690425Y-78981788D01*
X154690428Y-78981793D01*
X154767629Y-79115513D01*
X154769012Y-79118084D01*
X154769398Y-79118634D01*
X154881284Y-79230520D01*
X154881978Y-79231020D01*
X154884505Y-79232380D01*
X154930091Y-79258699D01*
X154957828Y-79280510D01*
X154967406Y-79290555D01*
X154999426Y-79352655D01*
X154992788Y-79422209D01*
X154992778Y-79422234D01*
X154992174Y-79423742D01*
X154958278Y-79471340D01*
X154954489Y-79474624D01*
X154935276Y-79488307D01*
X154915889Y-79499500D01*
X154881288Y-79519476D01*
X154881287Y-79519477D01*
X154881273Y-79519488D01*
X154769485Y-79631276D01*
X154769484Y-79631278D01*
X154769481Y-79631281D01*
X154769481Y-79631282D01*
X154769475Y-79631290D01*
X154769472Y-79631294D01*
X154769470Y-79631298D01*
X154690430Y-79768200D01*
X154690425Y-79768210D01*
X154690424Y-79768211D01*
X154690422Y-79768218D01*
X154649500Y-79920943D01*
X154649500Y-80079056D01*
X154672861Y-80166241D01*
X154690422Y-80231780D01*
X154690425Y-80231789D01*
X154767629Y-80365513D01*
X154769012Y-80368084D01*
X154769398Y-80368634D01*
X154881284Y-80480520D01*
X154881978Y-80481020D01*
X154884505Y-80482380D01*
X154930091Y-80508699D01*
X154957828Y-80530510D01*
X154967406Y-80540555D01*
X154999426Y-80602655D01*
X154992788Y-80672209D01*
X154992778Y-80672234D01*
X154992174Y-80673742D01*
X154958278Y-80721340D01*
X154954489Y-80724624D01*
X154935276Y-80738307D01*
X154915025Y-80749999D01*
X154881288Y-80769476D01*
X154881287Y-80769477D01*
X154881273Y-80769488D01*
X154769485Y-80881276D01*
X154769484Y-80881278D01*
X154769481Y-80881281D01*
X154769481Y-80881282D01*
X154769475Y-80881290D01*
X154769472Y-80881294D01*
X154769470Y-80881298D01*
X154690430Y-81018200D01*
X154690425Y-81018210D01*
X154690424Y-81018211D01*
X154690422Y-81018218D01*
X154655658Y-81147962D01*
X154649500Y-81170943D01*
X154649500Y-81329057D01*
X154656291Y-81354401D01*
X154686289Y-81466358D01*
X154686300Y-81466394D01*
X154690422Y-81481781D01*
X154690425Y-81481788D01*
X154690428Y-81481793D01*
X154767629Y-81615513D01*
X154769012Y-81618084D01*
X154769396Y-81618631D01*
X154769478Y-81618713D01*
X154769479Y-81618714D01*
X154769480Y-81618716D01*
X154829802Y-81679038D01*
X154883262Y-81732498D01*
X154895729Y-81747061D01*
X154905367Y-81760262D01*
X154928999Y-81826014D01*
X154913336Y-81894097D01*
X154911284Y-81897751D01*
X154875294Y-81937898D01*
X154874943Y-81938149D01*
X154859114Y-81947768D01*
X154811655Y-81971951D01*
X154721953Y-82061652D01*
X154721946Y-82061664D01*
X154664353Y-82174695D01*
X154664350Y-82174703D01*
X154649500Y-82268469D01*
X154649500Y-82268475D01*
X154649500Y-82731517D01*
X154660203Y-82799091D01*
X154660203Y-82799103D01*
X154664352Y-82825298D01*
X154664353Y-82825301D01*
X154664354Y-82825304D01*
X154719793Y-82934108D01*
X154721952Y-82938345D01*
X154721953Y-82938346D01*
X154721954Y-82938347D01*
X154811652Y-83028045D01*
X154811653Y-83028045D01*
X154811658Y-83028050D01*
X154811659Y-83028051D01*
X154811754Y-83028099D01*
X154924694Y-83085645D01*
X154924698Y-83085647D01*
X155018220Y-83100458D01*
X155018457Y-83100497D01*
X155018466Y-83100497D01*
X155018475Y-83100499D01*
X155018481Y-83100500D01*
X155981518Y-83100499D01*
X156075304Y-83085646D01*
X156188342Y-83028050D01*
X156278050Y-82938342D01*
X156335646Y-82825304D01*
X156335646Y-82825302D01*
X156335647Y-82825301D01*
X156335647Y-82825299D01*
X156335965Y-82824676D01*
X156336785Y-82820558D01*
X156336789Y-82820539D01*
X156337173Y-82815668D01*
X156350111Y-82733979D01*
X156350437Y-82732154D01*
X156350499Y-82731523D01*
X156350500Y-82731519D01*
X156350499Y-82268482D01*
X156335646Y-82174696D01*
X156278050Y-82061658D01*
X156278049Y-82061657D01*
X156278048Y-82061655D01*
X156188346Y-81971953D01*
X156188338Y-81971947D01*
X156148409Y-81951602D01*
X156119561Y-81931265D01*
X156109473Y-81921737D01*
X156074251Y-81861394D01*
X156077238Y-81791610D01*
X156078488Y-81787940D01*
X156112334Y-81739910D01*
X156110830Y-81738406D01*
X156118716Y-81730520D01*
X156230520Y-81618716D01*
X156309577Y-81481784D01*
X156350500Y-81329057D01*
X156350500Y-81170943D01*
X156309577Y-81018216D01*
X156308617Y-81016554D01*
X156299349Y-81000501D01*
X156299347Y-81000498D01*
X156282702Y-80971666D01*
X156230524Y-80881290D01*
X156230518Y-80881282D01*
X156230513Y-80881276D01*
X156118718Y-80769481D01*
X156118715Y-80769479D01*
X156084975Y-80750000D01*
X156084974Y-80749999D01*
X156069904Y-80741298D01*
X156042167Y-80719486D01*
X156039381Y-80716564D01*
X156032590Y-80709442D01*
X156000572Y-80647343D01*
X156007209Y-80577792D01*
X156007824Y-80576255D01*
X156041736Y-80528645D01*
X156045524Y-80525363D01*
X156064720Y-80511693D01*
X156118716Y-80480520D01*
X156230520Y-80368716D01*
X156309577Y-80231784D01*
X156350500Y-80079057D01*
X156350500Y-79920943D01*
X156309577Y-79768216D01*
X156265970Y-79692686D01*
X156230529Y-79631298D01*
X156230528Y-79631296D01*
X156230520Y-79631284D01*
X156230513Y-79631276D01*
X156118718Y-79519481D01*
X156118715Y-79519479D01*
X156085841Y-79500500D01*
X156085840Y-79500499D01*
X156069904Y-79491298D01*
X156042167Y-79469486D01*
X156039828Y-79467033D01*
X156032590Y-79459442D01*
X156000572Y-79397343D01*
X156007209Y-79327792D01*
X156007824Y-79326255D01*
X156041720Y-79278658D01*
X156045517Y-79275368D01*
X156064712Y-79261698D01*
X156118716Y-79230520D01*
X156118722Y-79230513D01*
X156122850Y-79227347D01*
X156138907Y-79216891D01*
X156153810Y-79208752D01*
X156222024Y-79193891D01*
X156223831Y-79194020D01*
X156282087Y-79213393D01*
X156288602Y-79217580D01*
X156309243Y-79234214D01*
X158815541Y-81740512D01*
X158816058Y-81740892D01*
X158818678Y-81742302D01*
X158852068Y-81761579D01*
X158884011Y-81780021D01*
X158960438Y-81800500D01*
X171497494Y-81800500D01*
X171532426Y-81805521D01*
X171557670Y-81812934D01*
X171610416Y-81844230D01*
X171666686Y-81900500D01*
X171780814Y-81966392D01*
X171908108Y-82000500D01*
X171908110Y-82000500D01*
X172039890Y-82000500D01*
X172039892Y-82000500D01*
X172167186Y-81966392D01*
X172281314Y-81900500D01*
X172374500Y-81807314D01*
X172440392Y-81693186D01*
X172474500Y-81565892D01*
X172474500Y-81434108D01*
X172440392Y-81306814D01*
X172374500Y-81192686D01*
X172281314Y-81099500D01*
X172223100Y-81065890D01*
X172167187Y-81033608D01*
X172103539Y-81016554D01*
X172039892Y-80999500D01*
X172039891Y-80999500D01*
X171908108Y-80999500D01*
X171780808Y-81033609D01*
X171780806Y-81033610D01*
X171666696Y-81099493D01*
X171666683Y-81099501D01*
X171615608Y-81150576D01*
X171587357Y-81171725D01*
X171564272Y-81184331D01*
X171504843Y-81199500D01*
X159193663Y-81199500D01*
X159158727Y-81194477D01*
X159133485Y-81187065D01*
X159080740Y-81155769D01*
X156434520Y-78509548D01*
X156434509Y-78509538D01*
X156431264Y-78507665D01*
X156405576Y-78487954D01*
X156399480Y-78481858D01*
X156373763Y-78472440D01*
X156373495Y-78473088D01*
X156365991Y-78469979D01*
X156365990Y-78469979D01*
X156365988Y-78469978D01*
X156365987Y-78469978D01*
X156348724Y-78465351D01*
X156348724Y-78465352D01*
X156333141Y-78461177D01*
X156300690Y-78447280D01*
X156278230Y-78433589D01*
X156235384Y-78389709D01*
X156230520Y-78381284D01*
X156230518Y-78381282D01*
X156230517Y-78381280D01*
X156118722Y-78269485D01*
X156118720Y-78269484D01*
X156118717Y-78269481D01*
X156118709Y-78269475D01*
X156092147Y-78254140D01*
X155981807Y-78190435D01*
X155981783Y-78190422D01*
X155847396Y-78154414D01*
X155829057Y-78149500D01*
X155829056Y-78149500D01*
X155170943Y-78149500D01*
X155018218Y-78190422D01*
X155018211Y-78190424D01*
X155018210Y-78190425D01*
X155018200Y-78190430D01*
X154881298Y-78269470D01*
X154881294Y-78269472D01*
X154881290Y-78269475D01*
X154881282Y-78269481D01*
X154881278Y-78269484D01*
X154881276Y-78269485D01*
X154769485Y-78381276D01*
X154769484Y-78381278D01*
X154769483Y-78381280D01*
X154769481Y-78381282D01*
X154769475Y-78381290D01*
X154769472Y-78381294D01*
X154769470Y-78381298D01*
X154690430Y-78518200D01*
X154690425Y-78518210D01*
X154690424Y-78518211D01*
X154690422Y-78518218D01*
X154649500Y-78670943D01*
X152800500Y-78670943D01*
X152800500Y-76509138D01*
X152800649Y-76503062D01*
X152800947Y-76496988D01*
X152801395Y-76490910D01*
X152812147Y-76381739D01*
X152813932Y-76369707D01*
X152813933Y-76369704D01*
X152816295Y-76357826D01*
X152819244Y-76346048D01*
X152848437Y-76249810D01*
X152852535Y-76238360D01*
X152857167Y-76227178D01*
X152862369Y-76216180D01*
X152909761Y-76127515D01*
X152916017Y-76117077D01*
X152922758Y-76106988D01*
X152929984Y-76097245D01*
X152993780Y-76019510D01*
X153001933Y-76010515D01*
X153010511Y-76001937D01*
X153019517Y-75993775D01*
X153097235Y-75929993D01*
X153106994Y-75922753D01*
X153117088Y-75916010D01*
X153127510Y-75909764D01*
X153216180Y-75862369D01*
X153227174Y-75857168D01*
X153238363Y-75852533D01*
X153249810Y-75848437D01*
X153346039Y-75819247D01*
X153357815Y-75816297D01*
X153369726Y-75813928D01*
X153381734Y-75812147D01*
X153463224Y-75804121D01*
X153475731Y-75802890D01*
X153475731Y-75802889D01*
X153490941Y-75801392D01*
X153496973Y-75800948D01*
X153503066Y-75800649D01*
X153509144Y-75800500D01*
X176342670Y-75800500D01*
X176377606Y-75805523D01*
G37*
G04 #@! TD.AperFunction*
G04 #@! TA.AperFunction,NonConductor*
G36*
X181457606Y-75805523D02*
G01*
X181472604Y-75809927D01*
X181531355Y-75847672D01*
X181532542Y-75849041D01*
X181560018Y-75903902D01*
X181561663Y-75911460D01*
X181564500Y-75937831D01*
X181564500Y-76502670D01*
X181559475Y-76537614D01*
X181555070Y-76552612D01*
X181517327Y-76611355D01*
X181515958Y-76612542D01*
X181461097Y-76640018D01*
X181453539Y-76641663D01*
X181427168Y-76644500D01*
X181077330Y-76644500D01*
X181042389Y-76639475D01*
X181027390Y-76635070D01*
X180968644Y-76597327D01*
X180967457Y-76595958D01*
X180939977Y-76541083D01*
X180938332Y-76533521D01*
X180935500Y-76507168D01*
X180935500Y-75942329D01*
X180940523Y-75907393D01*
X180944927Y-75892395D01*
X180982672Y-75833644D01*
X180984041Y-75832457D01*
X181038920Y-75804977D01*
X181046479Y-75803333D01*
X181072832Y-75800500D01*
X181422670Y-75800500D01*
X181457606Y-75805523D01*
G37*
G04 #@! TD.AperFunction*
G04 #@! TA.AperFunction,Conductor*
G36*
X187325494Y-76000576D02*
G01*
X187499290Y-76017389D01*
X187522728Y-76021967D01*
X187684309Y-76070066D01*
X187706435Y-76079051D01*
X187855807Y-76157235D01*
X187875792Y-76170290D01*
X188007411Y-76275661D01*
X188024525Y-76292307D01*
X188079014Y-76356628D01*
X188133501Y-76420948D01*
X188147111Y-76440572D01*
X188229405Y-76587715D01*
X188238998Y-76609576D01*
X188245372Y-76629001D01*
X188291562Y-76769770D01*
X188296787Y-76793070D01*
X188317669Y-76960365D01*
X188318331Y-76984237D01*
X188306345Y-77158422D01*
X188304951Y-77170295D01*
X188013296Y-78920219D01*
X188012404Y-78924991D01*
X187998001Y-78994506D01*
X187995661Y-79003926D01*
X187975868Y-79072091D01*
X187974424Y-79076725D01*
X187632912Y-80101262D01*
X187628502Y-80112604D01*
X187556041Y-80274896D01*
X187544003Y-80296014D01*
X187444816Y-80436049D01*
X187428889Y-80454412D01*
X187304284Y-80572411D01*
X187285080Y-80587316D01*
X187134674Y-80681995D01*
X187124070Y-80687964D01*
X185717582Y-81391208D01*
X185704384Y-81396877D01*
X185507259Y-81468328D01*
X185479344Y-81474918D01*
X185271078Y-81499168D01*
X185256737Y-81500000D01*
X184757839Y-81500000D01*
X184742219Y-81499012D01*
X184611954Y-81482471D01*
X184581707Y-81474664D01*
X184467052Y-81429016D01*
X184439715Y-81413897D01*
X184340106Y-81341042D01*
X184317415Y-81319570D01*
X184239176Y-81224133D01*
X184222573Y-81197674D01*
X184170666Y-81085710D01*
X184161201Y-81055937D01*
X184138926Y-80934558D01*
X184137202Y-80903368D01*
X184146530Y-80772385D01*
X184148625Y-80756874D01*
X184162952Y-80685242D01*
X184500000Y-79000000D01*
X184500000Y-77006092D01*
X184500597Y-76993938D01*
X184518018Y-76817056D01*
X184522757Y-76793232D01*
X184572577Y-76628994D01*
X184581875Y-76606549D01*
X184662775Y-76455195D01*
X184676272Y-76434995D01*
X184785149Y-76302328D01*
X184802328Y-76285149D01*
X184934995Y-76176272D01*
X184955195Y-76162775D01*
X185106549Y-76081875D01*
X185128994Y-76072577D01*
X185293232Y-76022757D01*
X185317056Y-76018018D01*
X185493939Y-76000597D01*
X185506093Y-76000000D01*
X187313554Y-76000000D01*
X187325494Y-76000576D01*
G37*
G04 #@! TD.AperFunction*
M02*
