G04 #@! TF.GenerationSoftware,KiCad,Pcbnew,10.0.5*
G04 #@! TF.CreationDate,2026-08-19T23:53:12+02:00*
G04 #@! TF.ProjectId,Fork Ikoka Nano,466f726b-2049-46b6-9f6b-61204e616e6f,1.1*
G04 #@! TF.SameCoordinates,Original*
G04 #@! TF.FileFunction,Legend,Top*
G04 #@! TF.FilePolarity,Positive*
%FSLAX46Y46*%
G04 Gerber Fmt 4.6, Leading zero omitted, Abs format (unit mm)*
G04 Created by KiCad (PCBNEW 10.0.5) date 2026-08-19 23:53:12*
%MOMM*%
%LPD*%
G01*
G04 APERTURE LIST*
G04 Aperture macros list*
%AMRoundRect*
0 Rectangle with rounded corners*
0 $1 Rounding radius*
0 $2 $3 $4 $5 $6 $7 $8 $9 X,Y pos of 4 corners*
0 Add a 4 corners polygon primitive as box body*
4,1,4,$2,$3,$4,$5,$6,$7,$8,$9,$2,$3,0*
0 Add four circle primitives for the rounded corners*
1,1,$1+$1,$2,$3*
1,1,$1+$1,$4,$5*
1,1,$1+$1,$6,$7*
1,1,$1+$1,$8,$9*
0 Add four rect primitives between the rounded corners*
20,1,$1+$1,$2,$3,$4,$5,0*
20,1,$1+$1,$4,$5,$6,$7,0*
20,1,$1+$1,$6,$7,$8,$9,0*
20,1,$1+$1,$8,$9,$2,$3,0*%
%AMFreePoly0*
4,1,15,-0.616000,0.142500,-0.283500,0.475000,0.521000,0.475000,0.557355,0.467769,0.588175,0.447175,0.608769,0.416355,0.616000,0.380000,0.616000,-0.380000,0.608769,-0.416355,0.588175,-0.447175,0.557355,-0.467769,0.521000,-0.475000,-0.283500,-0.475000,-0.616000,-0.142500,-0.616000,0.142500,-0.616000,0.142500,$1*%
G04 Aperture macros list end*
%ADD10C,0.150000*%
%ADD11C,0.504000*%
%ADD12C,0.127000*%
%ADD13C,0.100000*%
%ADD14C,0.120000*%
%ADD15RoundRect,0.110000X0.440000X-1.140000X0.440000X1.140000X-0.440000X1.140000X-0.440000X-1.140000X0*%
%ADD16C,1.700000*%
%ADD17FreePoly0,180.000000*%
%ADD18FreePoly0,0.000000*%
%ADD19RoundRect,0.095000X0.921000X0.380000X-0.921000X0.380000X-0.921000X-0.380000X0.921000X-0.380000X0*%
%ADD20RoundRect,0.095000X-0.921000X-0.380000X0.921000X-0.380000X0.921000X0.380000X-0.921000X0.380000X0*%
%ADD21RoundRect,0.237500X0.237500X-0.250000X0.237500X0.250000X-0.237500X0.250000X-0.237500X-0.250000X0*%
%ADD22RoundRect,0.150000X-0.587500X-0.150000X0.587500X-0.150000X0.587500X0.150000X-0.587500X0.150000X0*%
%ADD23C,1.000000*%
%ADD24RoundRect,0.200000X0.450000X-0.200000X0.450000X0.200000X-0.450000X0.200000X-0.450000X-0.200000X0*%
%ADD25O,1.300000X0.800000*%
%ADD26RoundRect,0.237500X0.237500X-0.300000X0.237500X0.300000X-0.237500X0.300000X-0.237500X-0.300000X0*%
%ADD27RoundRect,0.250000X-0.600000X0.600000X-0.600000X-0.600000X0.600000X-0.600000X0.600000X0.600000X0*%
%ADD28RoundRect,0.200000X-0.600000X0.200000X-0.600000X-0.200000X0.600000X-0.200000X0.600000X0.200000X0*%
%ADD29RoundRect,0.250001X-1.249999X0.799999X-1.249999X-0.799999X1.249999X-0.799999X1.249999X0.799999X0*%
%ADD30RoundRect,0.250000X-0.337500X-0.475000X0.337500X-0.475000X0.337500X0.475000X-0.337500X0.475000X0*%
%ADD31RoundRect,0.237500X0.250000X0.237500X-0.250000X0.237500X-0.250000X-0.237500X0.250000X-0.237500X0*%
%ADD32RoundRect,0.237500X-0.250000X-0.237500X0.250000X-0.237500X0.250000X0.237500X-0.250000X0.237500X0*%
%ADD33RoundRect,0.237500X-0.237500X0.250000X-0.237500X-0.250000X0.237500X-0.250000X0.237500X0.250000X0*%
%ADD34RoundRect,0.250000X0.337500X0.475000X-0.337500X0.475000X-0.337500X-0.475000X0.337500X-0.475000X0*%
%ADD35RoundRect,0.237500X0.300000X0.237500X-0.300000X0.237500X-0.300000X-0.237500X0.300000X-0.237500X0*%
%ADD36RoundRect,0.250000X0.300000X0.300000X-0.300000X0.300000X-0.300000X-0.300000X0.300000X-0.300000X0*%
%ADD37RoundRect,0.250000X-0.300000X-0.300000X0.300000X-0.300000X0.300000X0.300000X-0.300000X0.300000X0*%
%ADD38RoundRect,0.250001X-0.499999X-0.999999X0.499999X-0.999999X0.499999X0.999999X-0.499999X0.999999X0*%
%ADD39R,0.700000X1.500000*%
%ADD40R,1.000000X0.800000*%
%ADD41C,0.900000*%
%ADD42RoundRect,0.150000X-0.150000X0.512500X-0.150000X-0.512500X0.150000X-0.512500X0.150000X0.512500X0*%
G04 APERTURE END LIST*
D10*
X158926133Y-77619048D02*
X158926133Y-78380953D01*
X158545180Y-78000000D02*
X159307085Y-78000000D01*
X162926133Y-90119048D02*
X162926133Y-90880953D01*
X162545180Y-90500000D02*
X163307085Y-90500000D01*
X158426133Y-94619048D02*
X158426133Y-95380953D01*
X158045180Y-95000000D02*
X158807085Y-95000000D01*
X155779498Y-88510180D02*
X156493783Y-88510180D01*
X156493783Y-88510180D02*
X156636640Y-88557799D01*
X156636640Y-88557799D02*
X156731879Y-88653037D01*
X156731879Y-88653037D02*
X156779498Y-88795894D01*
X156779498Y-88795894D02*
X156779498Y-88891132D01*
X156112831Y-87605418D02*
X156779498Y-87605418D01*
X155731879Y-87843513D02*
X156446164Y-88081608D01*
X156446164Y-88081608D02*
X156446164Y-87462561D01*
X184106501Y-77817511D02*
X184058882Y-77865131D01*
X184058882Y-77865131D02*
X183916025Y-77912750D01*
X183916025Y-77912750D02*
X183820787Y-77912750D01*
X183820787Y-77912750D02*
X183677930Y-77865131D01*
X183677930Y-77865131D02*
X183582692Y-77769892D01*
X183582692Y-77769892D02*
X183535073Y-77674654D01*
X183535073Y-77674654D02*
X183487454Y-77484178D01*
X183487454Y-77484178D02*
X183487454Y-77341321D01*
X183487454Y-77341321D02*
X183535073Y-77150845D01*
X183535073Y-77150845D02*
X183582692Y-77055607D01*
X183582692Y-77055607D02*
X183677930Y-76960369D01*
X183677930Y-76960369D02*
X183820787Y-76912750D01*
X183820787Y-76912750D02*
X183916025Y-76912750D01*
X183916025Y-76912750D02*
X184058882Y-76960369D01*
X184058882Y-76960369D02*
X184106501Y-77007988D01*
X184677930Y-77341321D02*
X184582692Y-77293702D01*
X184582692Y-77293702D02*
X184535073Y-77246083D01*
X184535073Y-77246083D02*
X184487454Y-77150845D01*
X184487454Y-77150845D02*
X184487454Y-77103226D01*
X184487454Y-77103226D02*
X184535073Y-77007988D01*
X184535073Y-77007988D02*
X184582692Y-76960369D01*
X184582692Y-76960369D02*
X184677930Y-76912750D01*
X184677930Y-76912750D02*
X184868406Y-76912750D01*
X184868406Y-76912750D02*
X184963644Y-76960369D01*
X184963644Y-76960369D02*
X185011263Y-77007988D01*
X185011263Y-77007988D02*
X185058882Y-77103226D01*
X185058882Y-77103226D02*
X185058882Y-77150845D01*
X185058882Y-77150845D02*
X185011263Y-77246083D01*
X185011263Y-77246083D02*
X184963644Y-77293702D01*
X184963644Y-77293702D02*
X184868406Y-77341321D01*
X184868406Y-77341321D02*
X184677930Y-77341321D01*
X184677930Y-77341321D02*
X184582692Y-77388940D01*
X184582692Y-77388940D02*
X184535073Y-77436559D01*
X184535073Y-77436559D02*
X184487454Y-77531797D01*
X184487454Y-77531797D02*
X184487454Y-77722273D01*
X184487454Y-77722273D02*
X184535073Y-77817511D01*
X184535073Y-77817511D02*
X184582692Y-77865131D01*
X184582692Y-77865131D02*
X184677930Y-77912750D01*
X184677930Y-77912750D02*
X184868406Y-77912750D01*
X184868406Y-77912750D02*
X184963644Y-77865131D01*
X184963644Y-77865131D02*
X185011263Y-77817511D01*
X185011263Y-77817511D02*
X185058882Y-77722273D01*
X185058882Y-77722273D02*
X185058882Y-77531797D01*
X185058882Y-77531797D02*
X185011263Y-77436559D01*
X185011263Y-77436559D02*
X184963644Y-77388940D01*
X184963644Y-77388940D02*
X184868406Y-77341321D01*
X187833333Y-82359580D02*
X187785714Y-82407200D01*
X187785714Y-82407200D02*
X187642857Y-82454819D01*
X187642857Y-82454819D02*
X187547619Y-82454819D01*
X187547619Y-82454819D02*
X187404762Y-82407200D01*
X187404762Y-82407200D02*
X187309524Y-82311961D01*
X187309524Y-82311961D02*
X187261905Y-82216723D01*
X187261905Y-82216723D02*
X187214286Y-82026247D01*
X187214286Y-82026247D02*
X187214286Y-81883390D01*
X187214286Y-81883390D02*
X187261905Y-81692914D01*
X187261905Y-81692914D02*
X187309524Y-81597676D01*
X187309524Y-81597676D02*
X187404762Y-81502438D01*
X187404762Y-81502438D02*
X187547619Y-81454819D01*
X187547619Y-81454819D02*
X187642857Y-81454819D01*
X187642857Y-81454819D02*
X187785714Y-81502438D01*
X187785714Y-81502438D02*
X187833333Y-81550057D01*
X188166667Y-81454819D02*
X188833333Y-81454819D01*
X188833333Y-81454819D02*
X188404762Y-82454819D01*
D11*
X191097000Y-101052500D02*
G75*
G02*
X190593000Y-101052500I-252000J0D01*
G01*
X190593000Y-101052500D02*
G75*
G02*
X191097000Y-101052500I252000J0D01*
G01*
X189823000Y-100335500D02*
G75*
G02*
X189319000Y-100335500I-252000J0D01*
G01*
X189319000Y-100335500D02*
G75*
G02*
X189823000Y-100335500I252000J0D01*
G01*
D12*
X177741000Y-102978500D02*
G75*
G02*
X177241000Y-102478500I100J500100D01*
G01*
X186236272Y-102478772D02*
G75*
G02*
X185736272Y-102978472I-499972J272D01*
G01*
D13*
X174760000Y-101468500D02*
G75*
G02*
X172855000Y-99563500I50J1905050D01*
G01*
X190635000Y-99567500D02*
G75*
G02*
X188730000Y-101472500I-1905000J0D01*
G01*
X172855000Y-82418500D02*
G75*
G02*
X174760000Y-80513500I1905001J-1D01*
G01*
X188730000Y-80513500D02*
G75*
G02*
X190635000Y-82418500I-1J-1905001D01*
G01*
D12*
X185736272Y-102978500D02*
X177741000Y-102978500D01*
X177241000Y-102478500D02*
X177241000Y-101468500D01*
D13*
X174760000Y-101468500D02*
X188730000Y-101468500D01*
D12*
X186240000Y-101468500D02*
X186236272Y-102478772D01*
D13*
X172855000Y-82418500D02*
X172855000Y-99563500D01*
X190635000Y-82418500D02*
X190635000Y-99563500D01*
X188730000Y-80513500D02*
X174760000Y-80513500D01*
D14*
X158477500Y-83342224D02*
X158477500Y-82832776D01*
X159522500Y-83342224D02*
X159522500Y-82832776D01*
X165848006Y-91940000D02*
X165608006Y-91610000D01*
X166088006Y-91610000D01*
X165848006Y-91940000D01*
G36*
X165848006Y-91940000D02*
G01*
X165608006Y-91610000D01*
X166088006Y-91610000D01*
X165848006Y-91940000D01*
G37*
X167010506Y-91890000D02*
X166360506Y-91890000D01*
X167010506Y-91890000D02*
X167660506Y-91890000D01*
X167010506Y-95010000D02*
X166360506Y-95010000D01*
X167010506Y-95010000D02*
X167660506Y-95010000D01*
X193105932Y-91960836D02*
G75*
G02*
X191705932Y-91960836I-700000J0D01*
G01*
X191705932Y-91960836D02*
G75*
G02*
X193105932Y-91960836I700000J0D01*
G01*
X157050000Y-84400000D02*
X156050000Y-84400000D01*
X157050000Y-84400000D02*
X157050000Y-83400000D01*
X154700000Y-83800000D02*
X154700000Y-83600000D01*
X155500000Y-83800000D02*
X154700000Y-83800000D01*
X153850000Y-83600000D02*
X153850000Y-80000000D01*
X154700000Y-83600000D02*
X153850000Y-83600000D01*
X155500000Y-83600000D02*
X155500000Y-83800000D01*
X156250000Y-83600000D02*
X155500000Y-83600000D01*
X156250000Y-80000000D02*
X156250000Y-83600000D01*
X156250000Y-80000000D02*
X156250000Y-76400000D01*
X153850000Y-76400000D02*
X153850000Y-80000000D01*
X154700000Y-76400000D02*
X153850000Y-76400000D01*
X155500000Y-76400000D02*
X155500000Y-76200000D01*
X156250000Y-76400000D02*
X155500000Y-76400000D01*
X154700000Y-76200000D02*
X154700000Y-76400000D01*
X155500000Y-76200000D02*
X154700000Y-76200000D01*
X153340000Y-75890000D02*
X156760000Y-75890000D01*
X156760000Y-84110000D01*
X153340000Y-84110000D01*
X153340000Y-75890000D01*
X159510000Y-86783766D02*
X159510000Y-86491232D01*
X158490000Y-86783766D02*
X158490000Y-86491232D01*
X157710000Y-94590000D02*
X157710000Y-95540000D01*
X157260000Y-94590000D02*
X157710000Y-94590000D01*
X153740000Y-94590000D02*
X153290000Y-94590000D01*
X153290000Y-94590000D02*
X153290000Y-99060000D01*
X157710000Y-95540000D02*
X159200000Y-95540000D01*
X157710000Y-99060000D02*
X157710000Y-98110000D01*
X157260000Y-99060000D02*
X157710000Y-99060000D01*
X153290000Y-99060000D02*
X153740000Y-99060000D01*
X184011916Y-78402931D02*
X184534420Y-78402931D01*
X184011916Y-79872931D02*
X184534420Y-79872931D01*
X160180230Y-80002677D02*
X159670782Y-80002677D01*
X160180230Y-81047677D02*
X159670782Y-81047677D01*
X167832776Y-79977500D02*
X168342224Y-79977500D01*
X167832776Y-81022500D02*
X168342224Y-81022500D01*
X193058815Y-82783750D02*
G75*
G02*
X191658815Y-82783750I-700000J0D01*
G01*
X191658815Y-82783750D02*
G75*
G02*
X193058815Y-82783750I700000J0D01*
G01*
X192964747Y-87637068D02*
G75*
G02*
X191564747Y-87637068I-700000J0D01*
G01*
X191564747Y-87637068D02*
G75*
G02*
X192964747Y-87637068I700000J0D01*
G01*
X192788267Y-85254584D02*
G75*
G02*
X191388267Y-85254584I-700000J0D01*
G01*
X191388267Y-85254584D02*
G75*
G02*
X192788267Y-85254584I700000J0D01*
G01*
X192982395Y-89719536D02*
G75*
G02*
X191582395Y-89719536I-700000J0D01*
G01*
X191582395Y-89719536D02*
G75*
G02*
X192982395Y-89719536I700000J0D01*
G01*
X193000044Y-80530933D02*
G75*
G02*
X191600044Y-80530933I-700000J0D01*
G01*
X191600044Y-80530933D02*
G75*
G02*
X193000044Y-80530933I700000J0D01*
G01*
X181200000Y-94500000D02*
G75*
G02*
X179800000Y-94500000I-700000J0D01*
G01*
X179800000Y-94500000D02*
G75*
G02*
X181200000Y-94500000I700000J0D01*
G01*
X187200000Y-97500000D02*
G75*
G02*
X185800000Y-97500000I-700000J0D01*
G01*
X185800000Y-97500000D02*
G75*
G02*
X187200000Y-97500000I700000J0D01*
G01*
X157024317Y-90444607D02*
X157024317Y-89935159D01*
X155979317Y-90444607D02*
X155979317Y-89935159D01*
X155992770Y-85983207D02*
X155992770Y-86492655D01*
X157037770Y-85983207D02*
X157037770Y-86492655D01*
X183700000Y-94500000D02*
G75*
G02*
X182300000Y-94500000I-700000J0D01*
G01*
X182300000Y-94500000D02*
G75*
G02*
X183700000Y-94500000I700000J0D01*
G01*
X188457157Y-79872931D02*
X187934653Y-79872931D01*
X188457157Y-78402931D02*
X187934653Y-78402931D01*
X168283766Y-81490000D02*
X167991232Y-81490000D01*
X168283766Y-82510000D02*
X167991232Y-82510000D01*
X170614903Y-89344288D02*
X170614903Y-87344288D01*
X170614903Y-89344288D02*
X166754903Y-89344288D01*
X170614903Y-87344288D02*
X166754903Y-87344288D01*
X167738747Y-83265000D02*
X168261253Y-83265000D01*
X167738747Y-84735000D02*
X168261253Y-84735000D01*
X167701247Y-85265000D02*
X168223753Y-85265000D01*
X167701247Y-86735000D02*
X168223753Y-86735000D01*
X160264730Y-92000000D02*
X160264730Y-94000000D01*
X160264730Y-92000000D02*
X164124730Y-92000000D01*
X160264730Y-94000000D02*
X164124730Y-94000000D01*
X160861821Y-91052133D02*
X160861821Y-90352133D01*
X164931821Y-91052133D02*
X160861821Y-91052133D01*
X164931821Y-90352133D02*
X164931821Y-91052133D01*
X160861821Y-87332133D02*
X160861821Y-86632133D01*
X160861821Y-86632133D02*
X164931821Y-86632133D01*
X164931821Y-86632133D02*
X164931821Y-87332133D01*
X171450000Y-99897591D02*
X171450000Y-99107591D01*
X169400000Y-98057591D02*
X169600000Y-98057591D01*
X167900000Y-102197591D02*
X167900000Y-100907591D01*
X167900000Y-102197591D02*
X167700000Y-102407591D01*
X166800000Y-102407591D02*
X167700000Y-102407591D01*
X166600000Y-102197591D02*
X166800000Y-102407591D01*
X166600000Y-100907591D02*
X166600000Y-102197591D01*
X166400000Y-98057591D02*
X168100000Y-98057591D01*
X165150000Y-100907591D02*
X170850000Y-100907591D01*
X164550000Y-99107591D02*
X164550000Y-99897591D01*
X164082646Y-82599984D02*
X164412646Y-82359984D01*
X164412646Y-82839984D01*
X164082646Y-82599984D01*
G36*
X164412646Y-82839984D02*
G01*
X164082646Y-82599984D01*
X164412646Y-82359984D01*
X164412646Y-82839984D01*
G37*
X164132647Y-83899984D02*
X164132646Y-84699984D01*
X164132647Y-83899984D02*
X164132646Y-83099984D01*
X161012645Y-83899984D02*
X161012646Y-84699984D01*
X161012645Y-83899984D02*
X161012646Y-83099984D01*
%LPC*%
D15*
X180738988Y-85409677D03*
X182738988Y-85409677D03*
D16*
X180475000Y-96960000D03*
X183015000Y-96960000D03*
X180475000Y-99500000D03*
X183015000Y-99500000D03*
D17*
X173090000Y-89657500D03*
X173090000Y-87117500D03*
X173090000Y-84577500D03*
D18*
X190400000Y-84577500D03*
X190400000Y-87117500D03*
X190400000Y-89657500D03*
X190400000Y-92197500D03*
X190400000Y-94737500D03*
X190400000Y-97277500D03*
D19*
X173490000Y-98547500D03*
X173490000Y-96007500D03*
X173490000Y-93467500D03*
X173490000Y-90927500D03*
X173490000Y-88387500D03*
X173490000Y-85847500D03*
X173490000Y-83307500D03*
D20*
X190000000Y-83307500D03*
X190000000Y-85847500D03*
X190000000Y-88387500D03*
X190000000Y-90927500D03*
X190000000Y-93467500D03*
X190000000Y-96007500D03*
X190000000Y-98547500D03*
D21*
X159000000Y-82175000D03*
X159000000Y-84000000D03*
D22*
X167948006Y-93450000D03*
X166073006Y-94400000D03*
X166073006Y-92500000D03*
D23*
X192405932Y-91960836D03*
D24*
X155500000Y-82500000D03*
D25*
X155500000Y-81250000D03*
X155500000Y-80000000D03*
X155500000Y-78750000D03*
X155500000Y-77500000D03*
D26*
X159000000Y-85774998D03*
X159000000Y-87500000D03*
D16*
X154274679Y-90176847D03*
D27*
X154274679Y-86176847D03*
D28*
X158400000Y-96200000D03*
X158400000Y-97450000D03*
D29*
X155500000Y-93650000D03*
X155500000Y-100000000D03*
D30*
X183235668Y-79137931D03*
X185310668Y-79137931D03*
D31*
X160838006Y-80525177D03*
X159013006Y-80525177D03*
D32*
X167175000Y-80500000D03*
X169000000Y-80500000D03*
D23*
X192358815Y-82783750D03*
X192264747Y-87637068D03*
X192088267Y-85254584D03*
X192282395Y-89719536D03*
X192300044Y-80530933D03*
X180500000Y-94500000D03*
X186500000Y-97500000D03*
D21*
X156501817Y-89277383D03*
X156501817Y-91102383D03*
D33*
X156515270Y-87150431D03*
X156515270Y-85325431D03*
D23*
X183000000Y-94500000D03*
D34*
X189233405Y-79137931D03*
X187158405Y-79137931D03*
D35*
X169000000Y-82000000D03*
X167274998Y-82000000D03*
D36*
X169804903Y-88344288D03*
X167004903Y-88344288D03*
D30*
X166962500Y-84000000D03*
X169037500Y-84000000D03*
X166925000Y-86000000D03*
X169000000Y-86000000D03*
D37*
X161074730Y-93000000D03*
X163874730Y-93000000D03*
D38*
X164746821Y-88842133D03*
X161046821Y-88842133D03*
D39*
X170250000Y-97747591D03*
X168750000Y-97747591D03*
X165750000Y-97747591D03*
D40*
X171650000Y-100607591D03*
X171650000Y-98397591D03*
D41*
X169500000Y-99507591D03*
X166500000Y-99507591D03*
D40*
X164350000Y-100607591D03*
X164350000Y-98397591D03*
D42*
X163522645Y-85037484D03*
X162572646Y-85037484D03*
X161622647Y-85037484D03*
X161622647Y-82762484D03*
X162572646Y-82762484D03*
X163522645Y-82762484D03*
%LPD*%
M02*
