G04 #@! TF.GenerationSoftware,KiCad,Pcbnew,10.0.5*
G04 #@! TF.CreationDate,2026-08-19T23:53:12+02:00*
G04 #@! TF.ProjectId,Fork Ikoka Nano,466f726b-2049-46b6-9f6b-61204e616e6f,1.1*
G04 #@! TF.SameCoordinates,Original*
G04 #@! TF.FileFunction,Soldermask,Top*
G04 #@! TF.FilePolarity,Negative*
%FSLAX46Y46*%
G04 Gerber Fmt 4.6, Leading zero omitted, Abs format (unit mm)*
G04 Created by KiCad (PCBNEW 10.0.5) date 2026-08-19 23:53:12*
%MOMM*%
%LPD*%
G01*
G04 APERTURE LIST*
G04 Aperture macros list*
%AMRoundRect*
0 Rectangle with rounded corners*
0 $1 Rounding radius*
0 $2 $3 $4 $5 $6 $7 $8 $9 X,Y pos of 4 corners*
0 Add a 4 corners polygon primitive as box body*
4,1,4,$2,$3,$4,$5,$6,$7,$8,$9,$2,$3,0*
0 Add four circle primitives for the rounded corners*
1,1,$1+$1,$2,$3*
1,1,$1+$1,$4,$5*
1,1,$1+$1,$6,$7*
1,1,$1+$1,$8,$9*
0 Add four rect primitives between the rounded corners*
20,1,$1+$1,$2,$3,$4,$5,0*
20,1,$1+$1,$4,$5,$6,$7,0*
20,1,$1+$1,$6,$7,$8,$9,0*
20,1,$1+$1,$8,$9,$2,$3,0*%
%AMFreePoly0*
4,1,15,-0.616000,0.142500,-0.283500,0.475000,0.521000,0.475000,0.557355,0.467769,0.588175,0.447175,0.608769,0.416355,0.616000,0.380000,0.616000,-0.380000,0.608769,-0.416355,0.588175,-0.447175,0.557355,-0.467769,0.521000,-0.475000,-0.283500,-0.475000,-0.616000,-0.142500,-0.616000,0.142500,-0.616000,0.142500,$1*%
G04 Aperture macros list end*
%ADD10RoundRect,0.110000X0.440000X-1.140000X0.440000X1.140000X-0.440000X1.140000X-0.440000X-1.140000X0*%
%ADD11C,1.700000*%
%ADD12FreePoly0,180.000000*%
%ADD13FreePoly0,0.000000*%
%ADD14RoundRect,0.095000X0.921000X0.380000X-0.921000X0.380000X-0.921000X-0.380000X0.921000X-0.380000X0*%
%ADD15RoundRect,0.095000X-0.921000X-0.380000X0.921000X-0.380000X0.921000X0.380000X-0.921000X0.380000X0*%
%ADD16RoundRect,0.237500X0.237500X-0.250000X0.237500X0.250000X-0.237500X0.250000X-0.237500X-0.250000X0*%
%ADD17RoundRect,0.150000X-0.587500X-0.150000X0.587500X-0.150000X0.587500X0.150000X-0.587500X0.150000X0*%
%ADD18C,1.000000*%
%ADD19RoundRect,0.200000X0.450000X-0.200000X0.450000X0.200000X-0.450000X0.200000X-0.450000X-0.200000X0*%
%ADD20O,1.300000X0.800000*%
%ADD21RoundRect,0.237500X0.237500X-0.300000X0.237500X0.300000X-0.237500X0.300000X-0.237500X-0.300000X0*%
%ADD22RoundRect,0.250000X-0.600000X0.600000X-0.600000X-0.600000X0.600000X-0.600000X0.600000X0.600000X0*%
%ADD23RoundRect,0.200000X-0.600000X0.200000X-0.600000X-0.200000X0.600000X-0.200000X0.600000X0.200000X0*%
%ADD24RoundRect,0.250001X-1.249999X0.799999X-1.249999X-0.799999X1.249999X-0.799999X1.249999X0.799999X0*%
%ADD25RoundRect,0.250000X-0.337500X-0.475000X0.337500X-0.475000X0.337500X0.475000X-0.337500X0.475000X0*%
%ADD26RoundRect,0.237500X0.250000X0.237500X-0.250000X0.237500X-0.250000X-0.237500X0.250000X-0.237500X0*%
%ADD27RoundRect,0.237500X-0.250000X-0.237500X0.250000X-0.237500X0.250000X0.237500X-0.250000X0.237500X0*%
%ADD28RoundRect,0.237500X-0.237500X0.250000X-0.237500X-0.250000X0.237500X-0.250000X0.237500X0.250000X0*%
%ADD29RoundRect,0.250000X0.337500X0.475000X-0.337500X0.475000X-0.337500X-0.475000X0.337500X-0.475000X0*%
%ADD30RoundRect,0.237500X0.300000X0.237500X-0.300000X0.237500X-0.300000X-0.237500X0.300000X-0.237500X0*%
%ADD31RoundRect,0.250000X0.300000X0.300000X-0.300000X0.300000X-0.300000X-0.300000X0.300000X-0.300000X0*%
%ADD32RoundRect,0.250000X-0.300000X-0.300000X0.300000X-0.300000X0.300000X0.300000X-0.300000X0.300000X0*%
%ADD33RoundRect,0.250001X-0.499999X-0.999999X0.499999X-0.999999X0.499999X0.999999X-0.499999X0.999999X0*%
%ADD34R,0.700000X1.500000*%
%ADD35R,1.000000X0.800000*%
%ADD36C,0.900000*%
%ADD37RoundRect,0.150000X-0.150000X0.512500X-0.150000X-0.512500X0.150000X-0.512500X0.150000X0.512500X0*%
G04 APERTURE END LIST*
D10*
X180738988Y-85409677D03*
X182738988Y-85409677D03*
D11*
X180475000Y-96960000D03*
X183015000Y-96960000D03*
X180475000Y-99500000D03*
X183015000Y-99500000D03*
D12*
X173090000Y-89657500D03*
X173090000Y-87117500D03*
X173090000Y-84577500D03*
D13*
X190400000Y-84577500D03*
X190400000Y-87117500D03*
X190400000Y-89657500D03*
X190400000Y-92197500D03*
X190400000Y-94737500D03*
X190400000Y-97277500D03*
D14*
X173490000Y-98547500D03*
X173490000Y-96007500D03*
X173490000Y-93467500D03*
X173490000Y-90927500D03*
X173490000Y-88387500D03*
X173490000Y-85847500D03*
X173490000Y-83307500D03*
D15*
X190000000Y-83307500D03*
X190000000Y-85847500D03*
X190000000Y-88387500D03*
X190000000Y-90927500D03*
X190000000Y-93467500D03*
X190000000Y-96007500D03*
X190000000Y-98547500D03*
D16*
X159000000Y-82175000D03*
X159000000Y-84000000D03*
D17*
X167948006Y-93450000D03*
X166073006Y-94400000D03*
X166073006Y-92500000D03*
D18*
X192405932Y-91960836D03*
D19*
X155500000Y-82500000D03*
D20*
X155500000Y-81250000D03*
X155500000Y-80000000D03*
X155500000Y-78750000D03*
X155500000Y-77500000D03*
D21*
X159000000Y-85774998D03*
X159000000Y-87500000D03*
D11*
X154274679Y-90176847D03*
D22*
X154274679Y-86176847D03*
D23*
X158400000Y-96200000D03*
X158400000Y-97450000D03*
D24*
X155500000Y-93650000D03*
X155500000Y-100000000D03*
D25*
X183235668Y-79137931D03*
X185310668Y-79137931D03*
D26*
X160838006Y-80525177D03*
X159013006Y-80525177D03*
D27*
X167175000Y-80500000D03*
X169000000Y-80500000D03*
D18*
X192358815Y-82783750D03*
X192264747Y-87637068D03*
X192088267Y-85254584D03*
X192282395Y-89719536D03*
X192300044Y-80530933D03*
X180500000Y-94500000D03*
X186500000Y-97500000D03*
D16*
X156501817Y-89277383D03*
X156501817Y-91102383D03*
D28*
X156515270Y-87150431D03*
X156515270Y-85325431D03*
D18*
X183000000Y-94500000D03*
D29*
X189233405Y-79137931D03*
X187158405Y-79137931D03*
D30*
X169000000Y-82000000D03*
X167274998Y-82000000D03*
D31*
X169804903Y-88344288D03*
X167004903Y-88344288D03*
D25*
X166962500Y-84000000D03*
X169037500Y-84000000D03*
X166925000Y-86000000D03*
X169000000Y-86000000D03*
D32*
X161074730Y-93000000D03*
X163874730Y-93000000D03*
D33*
X164746821Y-88842133D03*
X161046821Y-88842133D03*
D34*
X170250000Y-97747591D03*
X168750000Y-97747591D03*
X165750000Y-97747591D03*
D35*
X171650000Y-100607591D03*
X171650000Y-98397591D03*
D36*
X169500000Y-99507591D03*
X166500000Y-99507591D03*
D35*
X164350000Y-100607591D03*
X164350000Y-98397591D03*
D37*
X163522645Y-85037484D03*
X162572646Y-85037484D03*
X161622647Y-85037484D03*
X161622647Y-82762484D03*
X162572646Y-82762484D03*
X163522645Y-82762484D03*
M02*
